<svg width="600" height="400" viewBox="0 0 600 400" fill="none" xmlns="http://www.w3.org/2000/svg">
<rect width="600" height="400" fill="white"/>
<g filter="url(#filter0_i)">
<path d="M200.254 190.624C200.254 187.989 200.824 185.646 201.964 183.594C203.104 181.517 204.687 179.908 206.714 178.768C208.766 177.603 211.084 177.02 213.668 177.02C216.835 177.02 219.545 177.856 221.8 179.528C224.055 181.2 225.562 183.48 226.322 186.368H219.178C218.646 185.253 217.886 184.405 216.898 183.822C215.935 183.239 214.833 182.948 213.592 182.948C211.591 182.948 209.969 183.645 208.728 185.038C207.487 186.431 206.866 188.293 206.866 190.624C206.866 192.955 207.487 194.817 208.728 196.21C209.969 197.603 211.591 198.3 213.592 198.3C214.833 198.3 215.935 198.009 216.898 197.426C217.886 196.843 218.646 195.995 219.178 194.88H226.322C225.562 197.768 224.055 200.048 221.8 201.72C219.545 203.367 216.835 204.19 213.668 204.19C211.084 204.19 208.766 203.62 206.714 202.48C204.687 201.315 203.104 199.706 201.964 197.654C200.824 195.602 200.254 193.259 200.254 190.624ZM239.953 204.304C237.876 204.304 236.001 203.861 234.329 202.974C232.683 202.087 231.378 200.821 230.415 199.174C229.478 197.527 229.009 195.602 229.009 193.398C229.009 191.219 229.491 189.307 230.453 187.66C231.416 185.988 232.733 184.709 234.405 183.822C236.077 182.935 237.952 182.492 240.029 182.492C242.107 182.492 243.981 182.935 245.653 183.822C247.325 184.709 248.643 185.988 249.605 187.66C250.568 189.307 251.049 191.219 251.049 193.398C251.049 195.577 250.555 197.502 249.567 199.174C248.605 200.821 247.275 202.087 245.577 202.974C243.905 203.861 242.031 204.304 239.953 204.304ZM239.953 198.68C241.195 198.68 242.246 198.224 243.107 197.312C243.994 196.4 244.437 195.095 244.437 193.398C244.437 191.701 244.007 190.396 243.145 189.484C242.309 188.572 241.271 188.116 240.029 188.116C238.763 188.116 237.711 188.572 236.875 189.484C236.039 190.371 235.621 191.675 235.621 193.398C235.621 195.095 236.027 196.4 236.837 197.312C237.673 198.224 238.712 198.68 239.953 198.68ZM267.417 182.568C269.899 182.568 271.875 183.379 273.345 185C274.839 186.596 275.587 188.8 275.587 191.612V204H269.127V192.486C269.127 191.067 268.759 189.965 268.025 189.18C267.29 188.395 266.302 188.002 265.061 188.002C263.819 188.002 262.831 188.395 262.097 189.18C261.362 189.965 260.995 191.067 260.995 192.486V204H254.497V182.796H260.995V185.608C261.653 184.671 262.54 183.936 263.655 183.404C264.769 182.847 266.023 182.568 267.417 182.568ZM291.92 198.49V204H288.614C286.258 204 284.421 203.43 283.104 202.29C281.787 201.125 281.128 199.237 281.128 196.628V188.192H278.544V182.796H281.128V177.628H287.626V182.796H291.882V188.192H287.626V196.704C287.626 197.337 287.778 197.793 288.082 198.072C288.386 198.351 288.893 198.49 289.602 198.49H291.92ZM294.248 193.36C294.248 191.181 294.653 189.269 295.464 187.622C296.3 185.975 297.427 184.709 298.846 183.822C300.264 182.935 301.848 182.492 303.596 182.492C305.09 182.492 306.395 182.796 307.51 183.404C308.65 184.012 309.524 184.81 310.132 185.798V182.796H316.63V204H310.132V200.998C309.498 201.986 308.612 202.784 307.472 203.392C306.357 204 305.052 204.304 303.558 204.304C301.835 204.304 300.264 203.861 298.846 202.974C297.427 202.062 296.3 200.783 295.464 199.136C294.653 197.464 294.248 195.539 294.248 193.36ZM310.132 193.398C310.132 191.777 309.676 190.497 308.764 189.56C307.877 188.623 306.788 188.154 305.496 188.154C304.204 188.154 303.102 188.623 302.19 189.56C301.303 190.472 300.86 191.739 300.86 193.36C300.86 194.981 301.303 196.273 302.19 197.236C303.102 198.173 304.204 198.642 305.496 198.642C306.788 198.642 307.877 198.173 308.764 197.236C309.676 196.299 310.132 195.019 310.132 193.398ZM329.957 204.304C328.107 204.304 326.461 203.987 325.017 203.354C323.573 202.721 322.433 201.859 321.597 200.77C320.761 199.655 320.292 198.414 320.191 197.046H326.613C326.689 197.781 327.031 198.376 327.639 198.832C328.247 199.288 328.994 199.516 329.881 199.516C330.691 199.516 331.312 199.364 331.743 199.06C332.199 198.731 332.427 198.313 332.427 197.806C332.427 197.198 332.11 196.755 331.477 196.476C330.843 196.172 329.817 195.843 328.399 195.488C326.879 195.133 325.612 194.766 324.599 194.386C323.585 193.981 322.711 193.36 321.977 192.524C321.242 191.663 320.875 190.51 320.875 189.066C320.875 187.85 321.204 186.748 321.863 185.76C322.547 184.747 323.535 183.949 324.827 183.366C326.144 182.783 327.702 182.492 329.501 182.492C332.161 182.492 334.251 183.151 335.771 184.468C337.316 185.785 338.203 187.533 338.431 189.712H332.427C332.325 188.977 331.996 188.395 331.439 187.964C330.907 187.533 330.197 187.318 329.311 187.318C328.551 187.318 327.968 187.47 327.563 187.774C327.157 188.053 326.955 188.445 326.955 188.952C326.955 189.56 327.271 190.016 327.905 190.32C328.563 190.624 329.577 190.928 330.945 191.232C332.515 191.637 333.795 192.043 334.783 192.448C335.771 192.828 336.632 193.461 337.367 194.348C338.127 195.209 338.519 196.375 338.545 197.844C338.545 199.085 338.19 200.2 337.481 201.188C336.797 202.151 335.796 202.911 334.479 203.468C333.187 204.025 331.679 204.304 329.957 204.304ZM364.18 182.796L350.88 214.07H343.888L348.752 203.278L340.126 182.796H347.384L352.286 196.058L357.15 182.796H364.18ZM373.253 182.302V176.26H383.779V204H377.015V182.302H373.253ZM387.54 182.302V176.26H398.066V204H391.302V182.302H387.54Z" fill="#980000"/>
</g>
<path d="M219.516 226.084C219.516 226.78 219.276 227.36 218.796 227.824C218.324 228.28 217.6 228.508 216.624 228.508H215.016V232H213.924V223.636H216.624C217.568 223.636 218.284 223.864 218.772 224.32C219.268 224.776 219.516 225.364 219.516 226.084ZM216.624 227.608C217.232 227.608 217.68 227.476 217.968 227.212C218.256 226.948 218.4 226.572 218.4 226.084C218.4 225.052 217.808 224.536 216.624 224.536H215.016V227.608H216.624ZM221.965 223.12V232H220.873V223.12H221.965ZM223.418 228.688C223.418 228.016 223.554 227.428 223.826 226.924C224.098 226.412 224.47 226.016 224.942 225.736C225.422 225.456 225.954 225.316 226.538 225.316C227.114 225.316 227.614 225.44 228.038 225.688C228.462 225.936 228.778 226.248 228.986 226.624V225.424H230.09V232H228.986V230.776C228.77 231.16 228.446 231.48 228.014 231.736C227.59 231.984 227.094 232.108 226.526 232.108C225.942 232.108 225.414 231.964 224.942 231.676C224.47 231.388 224.098 230.984 223.826 230.464C223.554 229.944 223.418 229.352 223.418 228.688ZM228.986 228.7C228.986 228.204 228.886 227.772 228.686 227.404C228.486 227.036 228.214 226.756 227.87 226.564C227.534 226.364 227.162 226.264 226.754 226.264C226.346 226.264 225.974 226.36 225.638 226.552C225.302 226.744 225.034 227.024 224.834 227.392C224.634 227.76 224.534 228.192 224.534 228.688C224.534 229.192 224.634 229.632 224.834 230.008C225.034 230.376 225.302 230.66 225.638 230.86C225.974 231.052 226.346 231.148 226.754 231.148C227.162 231.148 227.534 231.052 227.87 230.86C228.214 230.66 228.486 230.376 228.686 230.008C228.886 229.632 228.986 229.196 228.986 228.7ZM237.6 225.424L233.64 235.096H232.512L233.808 231.928L231.156 225.424H232.368L234.432 230.752L236.472 225.424H237.6ZM243.229 226.324V230.2C243.229 230.52 243.297 230.748 243.433 230.884C243.569 231.012 243.805 231.076 244.141 231.076H244.945V232H243.961C243.353 232 242.897 231.86 242.593 231.58C242.289 231.3 242.137 230.84 242.137 230.2V226.324H241.285V225.424H242.137V223.768H243.229V225.424H244.945V226.324H243.229ZM249.136 232.108C248.52 232.108 247.96 231.968 247.456 231.688C246.96 231.408 246.568 231.012 246.28 230.5C246 229.98 245.86 229.38 245.86 228.7C245.86 228.028 246.004 227.436 246.292 226.924C246.588 226.404 246.988 226.008 247.492 225.736C247.996 225.456 248.56 225.316 249.184 225.316C249.808 225.316 250.372 225.456 250.876 225.736C251.38 226.008 251.776 226.4 252.064 226.912C252.36 227.424 252.508 228.02 252.508 228.7C252.508 229.38 252.356 229.98 252.052 230.5C251.756 231.012 251.352 231.408 250.84 231.688C250.328 231.968 249.76 232.108 249.136 232.108ZM249.136 231.148C249.528 231.148 249.896 231.056 250.24 230.872C250.584 230.688 250.86 230.412 251.068 230.044C251.284 229.676 251.392 229.228 251.392 228.7C251.392 228.172 251.288 227.724 251.08 227.356C250.872 226.988 250.6 226.716 250.264 226.54C249.928 226.356 249.564 226.264 249.172 226.264C248.772 226.264 248.404 226.356 248.068 226.54C247.74 226.716 247.476 226.988 247.276 227.356C247.076 227.724 246.976 228.172 246.976 228.7C246.976 229.236 247.072 229.688 247.264 230.056C247.464 230.424 247.728 230.7 248.056 230.884C248.384 231.06 248.744 231.148 249.136 231.148ZM256.656 225.316C257.224 225.316 257.72 225.44 258.144 225.688C258.576 225.936 258.896 226.248 259.104 226.624V225.424H260.208V232.144C260.208 232.744 260.08 233.276 259.824 233.74C259.568 234.212 259.2 234.58 258.72 234.844C258.248 235.108 257.696 235.24 257.064 235.24C256.2 235.24 255.48 235.036 254.904 234.628C254.328 234.22 253.988 233.664 253.884 232.96H254.964C255.084 233.36 255.332 233.68 255.708 233.92C256.084 234.168 256.536 234.292 257.064 234.292C257.664 234.292 258.152 234.104 258.528 233.728C258.912 233.352 259.104 232.824 259.104 232.144V230.764C258.888 231.148 258.568 231.468 258.144 231.724C257.72 231.98 257.224 232.108 256.656 232.108C256.072 232.108 255.54 231.964 255.06 231.676C254.588 231.388 254.216 230.984 253.944 230.464C253.672 229.944 253.536 229.352 253.536 228.688C253.536 228.016 253.672 227.428 253.944 226.924C254.216 226.412 254.588 226.016 255.06 225.736C255.54 225.456 256.072 225.316 256.656 225.316ZM259.104 228.7C259.104 228.204 259.004 227.772 258.804 227.404C258.604 227.036 258.332 226.756 257.988 226.564C257.652 226.364 257.28 226.264 256.872 226.264C256.464 226.264 256.092 226.36 255.756 226.552C255.42 226.744 255.152 227.024 254.952 227.392C254.752 227.76 254.652 228.192 254.652 228.688C254.652 229.192 254.752 229.632 254.952 230.008C255.152 230.376 255.42 230.66 255.756 230.86C256.092 231.052 256.464 231.148 256.872 231.148C257.28 231.148 257.652 231.052 257.988 230.86C258.332 230.66 258.604 230.376 258.804 230.008C259.004 229.632 259.104 229.196 259.104 228.7ZM268.053 228.46C268.053 228.668 268.041 228.888 268.017 229.12H262.761C262.801 229.768 263.021 230.276 263.421 230.644C263.829 231.004 264.321 231.184 264.897 231.184C265.369 231.184 265.761 231.076 266.073 230.86C266.393 230.636 266.617 230.34 266.745 229.972H267.921C267.745 230.604 267.393 231.12 266.865 231.52C266.337 231.912 265.681 232.108 264.897 232.108C264.273 232.108 263.713 231.968 263.217 231.688C262.729 231.408 262.345 231.012 262.065 230.5C261.785 229.98 261.645 229.38 261.645 228.7C261.645 228.02 261.781 227.424 262.053 226.912C262.325 226.4 262.705 226.008 263.193 225.736C263.689 225.456 264.257 225.316 264.897 225.316C265.521 225.316 266.073 225.452 266.553 225.724C267.033 225.996 267.401 226.372 267.657 226.852C267.921 227.324 268.053 227.86 268.053 228.46ZM266.925 228.232C266.925 227.816 266.833 227.46 266.649 227.164C266.465 226.86 266.213 226.632 265.893 226.48C265.581 226.32 265.233 226.24 264.849 226.24C264.297 226.24 263.825 226.416 263.433 226.768C263.049 227.12 262.829 227.608 262.773 228.232H266.925ZM270.826 226.324V230.2C270.826 230.52 270.894 230.748 271.03 230.884C271.166 231.012 271.402 231.076 271.738 231.076H272.542V232H271.558C270.95 232 270.494 231.86 270.19 231.58C269.886 231.3 269.734 230.84 269.734 230.2V226.324H268.882V225.424H269.734V223.768H270.826V225.424H272.542V226.324H270.826ZM277.129 225.304C277.625 225.304 278.073 225.412 278.473 225.628C278.873 225.836 279.185 226.152 279.409 226.576C279.641 227 279.757 227.516 279.757 228.124V232H278.677V228.28C278.677 227.624 278.513 227.124 278.185 226.78C277.857 226.428 277.409 226.252 276.841 226.252C276.265 226.252 275.805 226.432 275.461 226.792C275.125 227.152 274.957 227.676 274.957 228.364V232H273.865V223.12H274.957V226.36C275.173 226.024 275.469 225.764 275.845 225.58C276.229 225.396 276.657 225.304 277.129 225.304ZM287.541 228.46C287.541 228.668 287.529 228.888 287.505 229.12H282.249C282.289 229.768 282.509 230.276 282.909 230.644C283.317 231.004 283.809 231.184 284.385 231.184C284.857 231.184 285.249 231.076 285.561 230.86C285.881 230.636 286.105 230.34 286.233 229.972H287.409C287.233 230.604 286.881 231.12 286.353 231.52C285.825 231.912 285.169 232.108 284.385 232.108C283.761 232.108 283.201 231.968 282.705 231.688C282.217 231.408 281.833 231.012 281.553 230.5C281.273 229.98 281.133 229.38 281.133 228.7C281.133 228.02 281.269 227.424 281.541 226.912C281.813 226.4 282.193 226.008 282.681 225.736C283.177 225.456 283.745 225.316 284.385 225.316C285.009 225.316 285.561 225.452 286.041 225.724C286.521 225.996 286.889 226.372 287.145 226.852C287.409 227.324 287.541 227.86 287.541 228.46ZM286.413 228.232C286.413 227.816 286.321 227.46 286.137 227.164C285.953 226.86 285.701 226.632 285.381 226.48C285.069 226.32 284.721 226.24 284.337 226.24C283.785 226.24 283.313 226.416 282.921 226.768C282.537 227.12 282.317 227.608 282.261 228.232H286.413ZM290.075 226.492C290.267 226.116 290.539 225.824 290.891 225.616C291.251 225.408 291.687 225.304 292.199 225.304V226.432H291.911C290.687 226.432 290.075 227.096 290.075 228.424V232H288.983V225.424H290.075V226.492ZM298.074 223.636L297.942 229.636H297.03L296.898 223.636H298.074ZM297.534 232.072C297.326 232.072 297.15 232 297.006 231.856C296.862 231.712 296.79 231.536 296.79 231.328C296.79 231.12 296.862 230.944 297.006 230.8C297.15 230.656 297.326 230.584 297.534 230.584C297.734 230.584 297.902 230.656 298.038 230.8C298.182 230.944 298.254 231.12 298.254 231.328C298.254 231.536 298.182 231.712 298.038 231.856C297.902 232 297.734 232.072 297.534 232.072ZM313.944 223.636L311.52 232H310.296L308.352 225.268L306.336 232L305.124 232.012L302.784 223.636H303.948L305.772 230.728L307.788 223.636H309.012L310.932 230.704L312.768 223.636H313.944ZM315.703 224.356C315.495 224.356 315.319 224.284 315.175 224.14C315.031 223.996 314.959 223.82 314.959 223.612C314.959 223.404 315.031 223.228 315.175 223.084C315.319 222.94 315.495 222.868 315.703 222.868C315.903 222.868 316.071 222.94 316.207 223.084C316.351 223.228 316.423 223.404 316.423 223.612C316.423 223.82 316.351 223.996 316.207 224.14C316.071 224.284 315.903 224.356 315.703 224.356ZM316.231 225.424V232H315.139V225.424H316.231ZM321.296 225.304C322.096 225.304 322.744 225.548 323.24 226.036C323.736 226.516 323.984 227.212 323.984 228.124V232H322.904V228.28C322.904 227.624 322.74 227.124 322.412 226.78C322.084 226.428 321.636 226.252 321.068 226.252C320.492 226.252 320.032 226.432 319.688 226.792C319.352 227.152 319.184 227.676 319.184 228.364V232H318.092V225.424H319.184V226.36C319.4 226.024 319.692 225.764 320.06 225.58C320.436 225.396 320.848 225.304 321.296 225.304ZM330.299 226.324V230.2C330.299 230.52 330.367 230.748 330.503 230.884C330.639 231.012 330.875 231.076 331.211 231.076H332.015V232H331.031C330.423 232 329.967 231.86 329.663 231.58C329.359 231.3 329.207 230.84 329.207 230.2V226.324H328.355V225.424H329.207V223.768H330.299V225.424H332.015V226.324H330.299ZM336.206 232.108C335.59 232.108 335.03 231.968 334.526 231.688C334.03 231.408 333.638 231.012 333.35 230.5C333.07 229.98 332.93 229.38 332.93 228.7C332.93 228.028 333.074 227.436 333.362 226.924C333.658 226.404 334.058 226.008 334.562 225.736C335.066 225.456 335.63 225.316 336.254 225.316C336.878 225.316 337.442 225.456 337.946 225.736C338.45 226.008 338.846 226.4 339.134 226.912C339.43 227.424 339.578 228.02 339.578 228.7C339.578 229.38 339.426 229.98 339.122 230.5C338.826 231.012 338.422 231.408 337.91 231.688C337.398 231.968 336.83 232.108 336.206 232.108ZM336.206 231.148C336.598 231.148 336.966 231.056 337.31 230.872C337.654 230.688 337.93 230.412 338.138 230.044C338.354 229.676 338.462 229.228 338.462 228.7C338.462 228.172 338.358 227.724 338.15 227.356C337.942 226.988 337.67 226.716 337.334 226.54C336.998 226.356 336.634 226.264 336.242 226.264C335.842 226.264 335.474 226.356 335.138 226.54C334.81 226.716 334.546 226.988 334.346 227.356C334.146 227.724 334.046 228.172 334.046 228.7C334.046 229.236 334.142 229.688 334.334 230.056C334.534 230.424 334.798 230.7 335.126 230.884C335.454 231.06 335.814 231.148 336.206 231.148ZM343.726 225.316C344.294 225.316 344.79 225.44 345.214 225.688C345.646 225.936 345.966 226.248 346.174 226.624V225.424H347.278V232.144C347.278 232.744 347.15 233.276 346.894 233.74C346.638 234.212 346.27 234.58 345.79 234.844C345.318 235.108 344.766 235.24 344.134 235.24C343.27 235.24 342.55 235.036 341.974 234.628C341.398 234.22 341.058 233.664 340.954 232.96H342.034C342.154 233.36 342.402 233.68 342.778 233.92C343.154 234.168 343.606 234.292 344.134 234.292C344.734 234.292 345.222 234.104 345.598 233.728C345.982 233.352 346.174 232.824 346.174 232.144V230.764C345.958 231.148 345.638 231.468 345.214 231.724C344.79 231.98 344.294 232.108 343.726 232.108C343.142 232.108 342.61 231.964 342.13 231.676C341.658 231.388 341.286 230.984 341.014 230.464C340.742 229.944 340.606 229.352 340.606 228.688C340.606 228.016 340.742 227.428 341.014 226.924C341.286 226.412 341.658 226.016 342.13 225.736C342.61 225.456 343.142 225.316 343.726 225.316ZM346.174 228.7C346.174 228.204 346.074 227.772 345.874 227.404C345.674 227.036 345.402 226.756 345.058 226.564C344.722 226.364 344.35 226.264 343.942 226.264C343.534 226.264 343.162 226.36 342.826 226.552C342.49 226.744 342.222 227.024 342.022 227.392C341.822 227.76 341.722 228.192 341.722 228.688C341.722 229.192 341.822 229.632 342.022 230.008C342.222 230.376 342.49 230.66 342.826 230.86C343.162 231.052 343.534 231.148 343.942 231.148C344.35 231.148 344.722 231.052 345.058 230.86C345.402 230.66 345.674 230.376 345.874 230.008C346.074 229.632 346.174 229.196 346.174 228.7ZM355.123 228.46C355.123 228.668 355.111 228.888 355.087 229.12H349.831C349.871 229.768 350.091 230.276 350.491 230.644C350.899 231.004 351.391 231.184 351.967 231.184C352.439 231.184 352.831 231.076 353.143 230.86C353.463 230.636 353.687 230.34 353.815 229.972H354.991C354.815 230.604 354.463 231.12 353.935 231.52C353.407 231.912 352.751 232.108 351.967 232.108C351.343 232.108 350.783 231.968 350.287 231.688C349.799 231.408 349.415 231.012 349.135 230.5C348.855 229.98 348.715 229.38 348.715 228.7C348.715 228.02 348.851 227.424 349.123 226.912C349.395 226.4 349.775 226.008 350.263 225.736C350.759 225.456 351.327 225.316 351.967 225.316C352.591 225.316 353.143 225.452 353.623 225.724C354.103 225.996 354.471 226.372 354.727 226.852C354.991 227.324 355.123 227.86 355.123 228.46ZM353.995 228.232C353.995 227.816 353.903 227.46 353.719 227.164C353.535 226.86 353.283 226.632 352.963 226.48C352.651 226.32 352.303 226.24 351.919 226.24C351.367 226.24 350.895 226.416 350.503 226.768C350.119 227.12 349.899 227.608 349.843 228.232H353.995ZM357.897 226.324V230.2C357.897 230.52 357.965 230.748 358.101 230.884C358.237 231.012 358.473 231.076 358.809 231.076H359.613V232H358.629C358.021 232 357.565 231.86 357.261 231.58C356.957 231.3 356.805 230.84 356.805 230.2V226.324H355.953V225.424H356.805V223.768H357.897V225.424H359.613V226.324H357.897ZM364.2 225.304C364.696 225.304 365.144 225.412 365.544 225.628C365.944 225.836 366.256 226.152 366.48 226.576C366.712 227 366.828 227.516 366.828 228.124V232H365.748V228.28C365.748 227.624 365.584 227.124 365.256 226.78C364.928 226.428 364.48 226.252 363.912 226.252C363.336 226.252 362.876 226.432 362.532 226.792C362.196 227.152 362.028 227.676 362.028 228.364V232H360.936V223.12H362.028V226.36C362.244 226.024 362.54 225.764 362.916 225.58C363.3 225.396 363.728 225.304 364.2 225.304ZM374.612 228.46C374.612 228.668 374.6 228.888 374.576 229.12H369.32C369.36 229.768 369.58 230.276 369.98 230.644C370.388 231.004 370.88 231.184 371.456 231.184C371.928 231.184 372.32 231.076 372.632 230.86C372.952 230.636 373.176 230.34 373.304 229.972H374.48C374.304 230.604 373.952 231.12 373.424 231.52C372.896 231.912 372.24 232.108 371.456 232.108C370.832 232.108 370.272 231.968 369.776 231.688C369.288 231.408 368.904 231.012 368.624 230.5C368.344 229.98 368.204 229.38 368.204 228.7C368.204 228.02 368.34 227.424 368.612 226.912C368.884 226.4 369.264 226.008 369.752 225.736C370.248 225.456 370.816 225.316 371.456 225.316C372.08 225.316 372.632 225.452 373.112 225.724C373.592 225.996 373.96 226.372 374.216 226.852C374.48 227.324 374.612 227.86 374.612 228.46ZM373.484 228.232C373.484 227.816 373.392 227.46 373.208 227.164C373.024 226.86 372.772 226.632 372.452 226.48C372.14 226.32 371.792 226.24 371.408 226.24C370.856 226.24 370.384 226.416 369.992 226.768C369.608 227.12 369.388 227.608 369.332 228.232H373.484ZM377.145 226.492C377.337 226.116 377.609 225.824 377.961 225.616C378.321 225.408 378.757 225.304 379.269 225.304V226.432H378.981C377.757 226.432 377.145 227.096 377.145 228.424V232H376.053V225.424H377.145V226.492ZM385.145 223.636L385.013 229.636H384.101L383.969 223.636H385.145ZM384.605 232.072C384.397 232.072 384.221 232 384.077 231.856C383.933 231.712 383.861 231.536 383.861 231.328C383.861 231.12 383.933 230.944 384.077 230.8C384.221 230.656 384.397 230.584 384.605 230.584C384.805 230.584 384.973 230.656 385.109 230.8C385.253 230.944 385.325 231.12 385.325 231.328C385.325 231.536 385.253 231.712 385.109 231.856C384.973 232 384.805 232.072 384.605 232.072Z" fill="black"/>
<defs>
<filter id="filter0_i" x="200.254" y="176.26" width="197.812" height="37.81" filterUnits="userSpaceOnUse" color-interpolation-filters="sRGB">
<feFlood flood-opacity="0" result="BackgroundImageFix"/>
<feBlend mode="normal" in="SourceGraphic" in2="BackgroundImageFix" result="shape"/>
<feColorMatrix in="SourceAlpha" type="matrix" values="0 0 0 0 0 0 0 0 0 0 0 0 0 0 0 0 0 0 127 0" result="hardAlpha"/>
<feOffset/>
<feGaussianBlur stdDeviation="2.5"/>
<feComposite in2="hardAlpha" operator="arithmetic" k2="-1" k3="1"/>
<feColorMatrix type="matrix" values="0 0 0 0 0 0 0 0 0 0 0 0 0 0 0 0 0 0 0.25 0"/>
<feBlend mode="normal" in2="shape" result="effect1_innerShadow"/>
</filter>
</defs>
</svg>
