<svg width="600" height="400" viewBox="0 0 600 400" fill="none" xmlns="http://www.w3.org/2000/svg">
<rect width="600" height="400" fill="white"/>
<path d="M225.976 210.224C225.136 210.224 224.445 209.981 223.904 209.496C223.381 208.992 223.12 208.376 223.12 207.648C223.12 206.901 223.381 206.276 223.904 205.772C224.445 205.268 225.136 205.016 225.976 205.016C226.797 205.016 227.469 205.268 227.992 205.772C228.533 206.276 228.804 206.901 228.804 207.648C228.804 208.376 228.533 208.992 227.992 209.496C227.469 209.981 226.797 210.224 225.976 210.224ZM230.686 202.16C230.686 200.555 230.985 199.145 231.582 197.932C232.198 196.719 233.029 195.785 234.074 195.132C235.12 194.479 236.286 194.152 237.574 194.152C238.601 194.152 239.534 194.367 240.374 194.796C241.233 195.225 241.905 195.804 242.39 196.532V189.28H247.178V210H242.39V207.76C241.942 208.507 241.298 209.104 240.458 209.552C239.637 210 238.676 210.224 237.574 210.224C236.286 210.224 235.12 209.897 234.074 209.244C233.029 208.572 232.198 207.629 231.582 206.416C230.985 205.184 230.686 203.765 230.686 202.16ZM242.39 202.188C242.39 200.993 242.054 200.051 241.382 199.36C240.729 198.669 239.926 198.324 238.974 198.324C238.022 198.324 237.21 198.669 236.538 199.36C235.885 200.032 235.558 200.965 235.558 202.16C235.558 203.355 235.885 204.307 236.538 205.016C237.21 205.707 238.022 206.052 238.974 206.052C239.926 206.052 240.729 205.707 241.382 205.016C242.054 204.325 242.39 203.383 242.39 202.188ZM255.43 196.98C255.99 196.121 256.69 195.449 257.53 194.964C258.37 194.46 259.304 194.208 260.33 194.208V199.276H259.014C257.82 199.276 256.924 199.537 256.326 200.06C255.729 200.564 255.43 201.46 255.43 202.748V210H250.642V194.376H255.43V196.98ZM269.731 210.224C268.2 210.224 266.819 209.897 265.587 209.244C264.373 208.591 263.412 207.657 262.703 206.444C262.012 205.231 261.667 203.812 261.667 202.188C261.667 200.583 262.021 199.173 262.731 197.96C263.44 196.728 264.411 195.785 265.643 195.132C266.875 194.479 268.256 194.152 269.787 194.152C271.317 194.152 272.699 194.479 273.931 195.132C275.163 195.785 276.133 196.728 276.843 197.96C277.552 199.173 277.907 200.583 277.907 202.188C277.907 203.793 277.543 205.212 276.815 206.444C276.105 207.657 275.125 208.591 273.875 209.244C272.643 209.897 271.261 210.224 269.731 210.224ZM269.731 206.08C270.645 206.08 271.42 205.744 272.055 205.072C272.708 204.4 273.035 203.439 273.035 202.188C273.035 200.937 272.717 199.976 272.083 199.304C271.467 198.632 270.701 198.296 269.787 198.296C268.853 198.296 268.079 198.632 267.463 199.304C266.847 199.957 266.539 200.919 266.539 202.188C266.539 203.439 266.837 204.4 267.435 205.072C268.051 205.744 268.816 206.08 269.731 206.08ZM282.855 192.752C282.015 192.752 281.324 192.509 280.783 192.024C280.26 191.52 279.999 190.904 279.999 190.176C279.999 189.429 280.26 188.813 280.783 188.328C281.324 187.824 282.015 187.572 282.855 187.572C283.676 187.572 284.348 187.824 284.871 188.328C285.412 188.813 285.683 189.429 285.683 190.176C285.683 190.904 285.412 191.52 284.871 192.024C284.348 192.509 283.676 192.752 282.855 192.752ZM285.235 194.376V210H280.447V194.376H285.235ZM287.753 202.16C287.753 200.555 288.051 199.145 288.649 197.932C289.265 196.719 290.095 195.785 291.141 195.132C292.186 194.479 293.353 194.152 294.641 194.152C295.667 194.152 296.601 194.367 297.441 194.796C298.299 195.225 298.971 195.804 299.457 196.532V189.28H304.245V210H299.457V207.76C299.009 208.507 298.365 209.104 297.525 209.552C296.703 210 295.742 210.224 294.641 210.224C293.353 210.224 292.186 209.897 291.141 209.244C290.095 208.572 289.265 207.629 288.649 206.416C288.051 205.184 287.753 203.765 287.753 202.16ZM299.457 202.188C299.457 200.993 299.121 200.051 298.449 199.36C297.795 198.669 296.993 198.324 296.041 198.324C295.089 198.324 294.277 198.669 293.605 199.36C292.951 200.032 292.625 200.965 292.625 202.16C292.625 203.355 292.951 204.307 293.605 205.016C294.277 205.707 295.089 206.052 296.041 206.052C296.993 206.052 297.795 205.707 298.449 205.016C299.121 204.325 299.457 203.383 299.457 202.188ZM318.43 196.98C318.99 196.121 319.69 195.449 320.53 194.964C321.37 194.46 322.304 194.208 323.33 194.208V199.276H322.014C320.82 199.276 319.924 199.537 319.326 200.06C318.729 200.564 318.43 201.46 318.43 202.748V210H313.642V194.376H318.43V196.98ZM340.347 201.936C340.347 202.384 340.319 202.851 340.263 203.336H329.427C329.501 204.307 329.809 205.053 330.351 205.576C330.911 206.08 331.592 206.332 332.395 206.332C333.589 206.332 334.42 205.828 334.887 204.82H339.983C339.721 205.847 339.245 206.771 338.555 207.592C337.883 208.413 337.033 209.057 336.007 209.524C334.98 209.991 333.832 210.224 332.563 210.224C331.032 210.224 329.669 209.897 328.475 209.244C327.28 208.591 326.347 207.657 325.675 206.444C325.003 205.231 324.667 203.812 324.667 202.188C324.667 200.564 324.993 199.145 325.647 197.932C326.319 196.719 327.252 195.785 328.447 195.132C329.641 194.479 331.013 194.152 332.563 194.152C334.075 194.152 335.419 194.469 336.595 195.104C337.771 195.739 338.685 196.644 339.339 197.82C340.011 198.996 340.347 200.368 340.347 201.936ZM335.447 200.676C335.447 199.855 335.167 199.201 334.607 198.716C334.047 198.231 333.347 197.988 332.507 197.988C331.704 197.988 331.023 198.221 330.463 198.688C329.921 199.155 329.585 199.817 329.455 200.676H335.447ZM347.661 196.588C348.127 195.86 348.771 195.272 349.593 194.824C350.414 194.376 351.375 194.152 352.477 194.152C353.765 194.152 354.931 194.479 355.977 195.132C357.022 195.785 357.843 196.719 358.441 197.932C359.057 199.145 359.365 200.555 359.365 202.16C359.365 203.765 359.057 205.184 358.441 206.416C357.843 207.629 357.022 208.572 355.977 209.244C354.931 209.897 353.765 210.224 352.477 210.224C351.394 210.224 350.433 210 349.593 209.552C348.771 209.104 348.127 208.525 347.661 207.816V217.448H342.873V194.376H347.661V196.588ZM354.493 202.16C354.493 200.965 354.157 200.032 353.485 199.36C352.831 198.669 352.019 198.324 351.049 198.324C350.097 198.324 349.285 198.669 348.613 199.36C347.959 200.051 347.633 200.993 347.633 202.188C347.633 203.383 347.959 204.325 348.613 205.016C349.285 205.707 350.097 206.052 351.049 206.052C352.001 206.052 352.813 205.707 353.485 205.016C354.157 204.307 354.493 203.355 354.493 202.16ZM368.989 210.224C367.458 210.224 366.077 209.897 364.845 209.244C363.631 208.591 362.67 207.657 361.961 206.444C361.27 205.231 360.925 203.812 360.925 202.188C360.925 200.583 361.279 199.173 361.989 197.96C362.698 196.728 363.669 195.785 364.901 195.132C366.133 194.479 367.514 194.152 369.045 194.152C370.575 194.152 371.957 194.479 373.189 195.132C374.421 195.785 375.391 196.728 376.101 197.96C376.81 199.173 377.165 200.583 377.165 202.188C377.165 203.793 376.801 205.212 376.073 206.444C375.363 207.657 374.383 208.591 373.133 209.244C371.901 209.897 370.519 210.224 368.989 210.224ZM368.989 206.08C369.903 206.08 370.678 205.744 371.313 205.072C371.966 204.4 372.293 203.439 372.293 202.188C372.293 200.937 371.975 199.976 371.341 199.304C370.725 198.632 369.959 198.296 369.045 198.296C368.111 198.296 367.337 198.632 366.721 199.304C366.105 199.957 365.797 200.919 365.797 202.188C365.797 203.439 366.095 204.4 366.693 205.072C367.309 205.744 368.074 206.08 368.989 206.08Z" fill="#00EF60"/>
</svg>
