<svg width="83" height="87" viewBox="0 0 83 87" fill="none" xmlns="http://www.w3.org/2000/svg">
<rect width="83" height="87" rx="10" fill="#121212"/>
<path d="M27.008 57.266C25.0573 57.266 23.3093 56.9493 21.764 56.316C20.2187 55.6827 18.9773 54.7453 18.04 53.504C17.128 52.2627 16.6467 50.768 16.596 49.02H23.512C23.6133 50.008 23.9553 50.768 24.538 51.3C25.1207 51.8067 25.8807 52.06 26.818 52.06C27.7807 52.06 28.5407 51.8447 29.098 51.414C29.6553 50.958 29.934 50.3373 29.934 49.552C29.934 48.8933 29.706 48.3487 29.25 47.918C28.8193 47.4873 28.2747 47.1327 27.616 46.854C26.9827 46.5753 26.0707 46.2587 24.88 45.904C23.1573 45.372 21.7513 44.84 20.662 44.308C19.5727 43.776 18.6353 42.9907 17.85 41.952C17.0647 40.9133 16.672 39.558 16.672 37.886C16.672 35.4033 17.5713 33.4653 19.37 32.072C21.1687 30.6533 23.512 29.944 26.4 29.944C29.3387 29.944 31.7073 30.6533 33.506 32.072C35.3047 33.4653 36.2673 35.416 36.394 37.924H29.364C29.3133 37.0627 28.9967 36.3913 28.414 35.91C27.8313 35.4033 27.084 35.15 26.172 35.15C25.3867 35.15 24.7533 35.3653 24.272 35.796C23.7907 36.2013 23.55 36.7967 23.55 37.582C23.55 38.4433 23.9553 39.1147 24.766 39.596C25.5767 40.0773 26.8433 40.5967 28.566 41.154C30.2887 41.7367 31.682 42.294 32.746 42.826C33.8353 43.358 34.7727 44.1307 35.558 45.144C36.3433 46.1573 36.736 47.462 36.736 49.058C36.736 50.578 36.3433 51.9587 35.558 53.2C34.798 54.4413 33.6833 55.4293 32.214 56.164C30.7447 56.8987 29.0093 57.266 27.008 57.266ZM58.4429 38.76C57.9616 37.8733 57.2649 37.202 56.3529 36.746C55.4662 36.2647 54.4149 36.024 53.1989 36.024C51.0962 36.024 49.4116 36.7207 48.1449 38.114C46.8782 39.482 46.2449 41.3187 46.2449 43.624C46.2449 46.0813 46.9036 48.0067 48.2209 49.4C49.5636 50.768 51.4002 51.452 53.7309 51.452C55.3269 51.452 56.6696 51.0467 57.7589 50.236C58.8736 49.4253 59.6842 48.26 60.1909 46.74H51.9449V41.952H66.0809V47.994C65.5996 49.6153 64.7762 51.1227 63.6109 52.516C62.4709 53.9093 61.0142 55.0367 59.2409 55.898C57.4676 56.7593 55.4662 57.19 53.2369 57.19C50.6022 57.19 48.2462 56.62 46.1689 55.48C44.1169 54.3147 42.5082 52.706 41.3429 50.654C40.2029 48.602 39.6329 46.2587 39.6329 43.624C39.6329 40.9893 40.2029 38.646 41.3429 36.594C42.5082 34.5167 44.1169 32.908 46.1689 31.768C48.2209 30.6027 50.5642 30.02 53.1989 30.02C56.3909 30.02 59.0762 30.7927 61.2549 32.338C63.4589 33.8833 64.9156 36.024 65.6249 38.76H58.4429Z" fill="white"/>
</svg>
