<svg width="600" height="400" viewBox="0 0 600 400" fill="none" xmlns="http://www.w3.org/2000/svg">
<rect width="600" height="400" fill="white"/>
<path d="M226.008 213.266C224.057 213.266 222.309 212.949 220.764 212.316C219.219 211.683 217.977 210.745 217.04 209.504C216.128 208.263 215.647 206.768 215.596 205.02H222.512C222.613 206.008 222.955 206.768 223.538 207.3C224.121 207.807 224.881 208.06 225.818 208.06C226.781 208.06 227.541 207.845 228.098 207.414C228.655 206.958 228.934 206.337 228.934 205.552C228.934 204.893 228.706 204.349 228.25 203.918C227.819 203.487 227.275 203.133 226.616 202.854C225.983 202.575 225.071 202.259 223.88 201.904C222.157 201.372 220.751 200.84 219.662 200.308C218.573 199.776 217.635 198.991 216.85 197.952C216.065 196.913 215.672 195.558 215.672 193.886C215.672 191.403 216.571 189.465 218.37 188.072C220.169 186.653 222.512 185.944 225.4 185.944C228.339 185.944 230.707 186.653 232.506 188.072C234.305 189.465 235.267 191.416 235.394 193.924H228.364C228.313 193.063 227.997 192.391 227.414 191.91C226.831 191.403 226.084 191.15 225.172 191.15C224.387 191.15 223.753 191.365 223.272 191.796C222.791 192.201 222.55 192.797 222.55 193.582C222.55 194.443 222.955 195.115 223.766 195.596C224.577 196.077 225.843 196.597 227.566 197.154C229.289 197.737 230.682 198.294 231.746 198.826C232.835 199.358 233.773 200.131 234.558 201.144C235.343 202.157 235.736 203.462 235.736 205.058C235.736 206.578 235.343 207.959 234.558 209.2C233.798 210.441 232.683 211.429 231.214 212.164C229.745 212.899 228.009 213.266 226.008 213.266ZM251.553 207.49V213H248.247C245.891 213 244.054 212.43 242.737 211.29C241.42 210.125 240.761 208.237 240.761 205.628V197.192H238.177V191.796H240.761V186.628H247.259V191.796H251.515V197.192H247.259V205.704C247.259 206.337 247.411 206.793 247.715 207.072C248.019 207.351 248.526 207.49 249.235 207.49H251.553ZM276.11 191.796V213H269.612V210.112C268.954 211.049 268.054 211.809 266.914 212.392C265.8 212.949 264.558 213.228 263.19 213.228C261.569 213.228 260.138 212.873 258.896 212.164C257.655 211.429 256.692 210.378 256.008 209.01C255.324 207.642 254.982 206.033 254.982 204.184V191.796H261.442V203.31C261.442 204.729 261.81 205.831 262.544 206.616C263.279 207.401 264.267 207.794 265.508 207.794C266.775 207.794 267.776 207.401 268.51 206.616C269.245 205.831 269.612 204.729 269.612 203.31V191.796H276.11ZM279.486 202.36C279.486 200.181 279.891 198.269 280.702 196.622C281.538 194.975 282.665 193.709 284.084 192.822C285.503 191.935 287.086 191.492 288.834 191.492C290.227 191.492 291.494 191.783 292.634 192.366C293.799 192.949 294.711 193.734 295.37 194.722V184.88H301.868V213H295.37V209.96C294.762 210.973 293.888 211.784 292.748 212.392C291.633 213 290.329 213.304 288.834 213.304C287.086 213.304 285.503 212.861 284.084 211.974C282.665 211.062 281.538 209.783 280.702 208.136C279.891 206.464 279.486 204.539 279.486 202.36ZM295.37 202.398C295.37 200.777 294.914 199.497 294.002 198.56C293.115 197.623 292.026 197.154 290.734 197.154C289.442 197.154 288.34 197.623 287.428 198.56C286.541 199.472 286.098 200.739 286.098 202.36C286.098 203.981 286.541 205.273 287.428 206.236C288.34 207.173 289.442 207.642 290.734 207.642C292.026 207.642 293.115 207.173 294.002 206.236C294.914 205.299 295.37 204.019 295.37 202.398ZM334.952 194.912C334.952 196.457 334.597 197.876 333.888 199.168C333.178 200.435 332.089 201.461 330.62 202.246C329.15 203.031 327.326 203.424 325.148 203.424H321.12V213H314.622V186.324H325.148C327.276 186.324 329.074 186.691 330.544 187.426C332.013 188.161 333.115 189.174 333.85 190.466C334.584 191.758 334.952 193.24 334.952 194.912ZM324.654 198.256C325.895 198.256 326.82 197.965 327.428 197.382C328.036 196.799 328.34 195.976 328.34 194.912C328.34 193.848 328.036 193.025 327.428 192.442C326.82 191.859 325.895 191.568 324.654 191.568H321.12V198.256H324.654ZM337.043 202.36C337.043 200.181 337.448 198.269 338.259 196.622C339.095 194.975 340.222 193.709 341.641 192.822C343.059 191.935 344.643 191.492 346.391 191.492C347.885 191.492 349.19 191.796 350.305 192.404C351.445 193.012 352.319 193.81 352.927 194.798V191.796H359.425V213H352.927V209.998C352.293 210.986 351.407 211.784 350.267 212.392C349.152 213 347.847 213.304 346.353 213.304C344.63 213.304 343.059 212.861 341.641 211.974C340.222 211.062 339.095 209.783 338.259 208.136C337.448 206.464 337.043 204.539 337.043 202.36ZM352.927 202.398C352.927 200.777 352.471 199.497 351.559 198.56C350.672 197.623 349.583 197.154 348.291 197.154C346.999 197.154 345.897 197.623 344.985 198.56C344.098 199.472 343.655 200.739 343.655 202.36C343.655 203.981 344.098 205.273 344.985 206.236C345.897 207.173 346.999 207.642 348.291 207.642C349.583 207.642 350.672 207.173 351.559 206.236C352.471 205.299 352.927 204.019 352.927 202.398ZM385.786 191.796L372.486 223.07H365.494L370.358 212.278L361.732 191.796H368.99L373.892 205.058L378.756 191.796H385.786Z" fill="#021D38"/>
<rect x="216" y="223" width="100" height="5" rx="2.5" fill="#021D38"/>
<circle cx="323.5" cy="225.5" r="2.5" fill="#FF7262"/>
<circle cx="333.5" cy="225.5" r="2.5" fill="#5FFF8B"/>
<circle cx="343.5" cy="225.5" r="2.5" fill="#A0E65C"/>
</svg>
