<svg width="600" height="400" viewBox="0 0 600 400" fill="none" xmlns="http://www.w3.org/2000/svg">
<rect width="600" height="400" fill="white"/>
<path d="M318.263 229.273V233.325H319.563V230.627H324.293V233.325H325.592V229.28L318.263 229.273V229.273ZM319.418 227.962H324.416C325.11 227.824 325.626 227.211 325.772 226.618H318.062C318.207 227.211 318.73 227.824 319.418 227.962V227.962ZM314.327 233.328C314.982 233.05 315.335 232.57 315.47 232.007H309.64L309.644 226.622L308.337 226.625V233.328H314.327V233.328ZM298.62 227.943H303.235C303.931 227.741 304.516 227.211 304.658 226.624H297.326V230.584H303.327V231.974L298.62 231.978C297.882 232.184 297.257 232.679 296.945 233.333L297.326 233.326H304.616V229.268H298.62V227.943V227.943ZM287.226 227.956H292.222C292.917 227.818 293.433 227.206 293.578 226.612H285.869C286.013 227.206 286.537 227.818 287.226 227.956V227.956ZM287.226 230.605H292.222C292.917 230.468 293.433 229.856 293.578 229.262H285.869C286.013 229.856 286.537 230.468 287.226 230.605ZM287.226 233.327H292.222C292.917 233.189 293.433 232.577 293.578 231.984H285.869C286.013 232.577 286.537 233.189 287.226 233.327ZM274.229 226.629C274.379 227.214 274.886 227.813 275.582 227.963H277.685L277.792 228.006V233.312H279.105V228.006L279.224 227.963H281.329C282.033 227.782 282.529 227.214 282.677 226.629V226.616H274.229V226.629Z" fill="#E82127"/>
<path d="M300.002 213.37L306.564 176.466C312.818 176.466 314.791 177.152 315.076 179.952C315.076 179.952 319.272 178.387 321.388 175.21C313.13 171.384 304.833 171.211 304.833 171.211L299.991 177.108L300.002 177.107L295.161 171.21C295.161 171.21 286.864 171.383 278.607 175.209C280.721 178.387 284.919 179.951 284.919 179.951C285.205 177.151 287.175 176.466 293.388 176.461L300.002 213.37Z" fill="#E82127"/>
<path d="M300 169.508C306.675 169.457 314.316 170.54 322.137 173.949C323.183 172.068 323.451 171.236 323.451 171.236C314.901 167.853 306.894 166.696 299.999 166.667C293.104 166.696 285.097 167.854 276.548 171.236C276.548 171.236 276.93 172.26 277.862 173.949C285.682 170.54 293.323 169.457 299.999 169.508H300" fill="#E82127"/>
</svg>
