<svg width="600" height="400" viewBox="0 0 600 400" fill="none" xmlns="http://www.w3.org/2000/svg">
<rect width="600" height="400" fill="white"/>
<path d="M284.746 188.813C285.551 188.969 286.148 189.242 286.537 189.632C286.953 190.022 287.16 190.477 287.16 190.997C287.16 191.855 286.914 192.479 286.42 192.869C285.953 193.259 285.2 193.414 284.162 193.337C281.826 193.155 279.996 193.038 278.672 192.986C277.374 192.908 275.661 192.856 273.532 192.83C272.572 197.613 271.689 202.422 270.884 207.257C270.599 209.024 270.3 211.078 269.989 213.417C269.677 215.731 269.47 217.602 269.366 219.032C269.314 219.786 269.003 220.371 268.431 220.787C267.86 221.176 267.172 221.371 266.368 221.371C265.511 221.371 264.849 221.164 264.382 220.748C263.915 220.332 263.681 219.786 263.681 219.11C263.681 218.486 263.772 217.459 263.954 216.03C264.161 214.574 264.395 213.053 264.655 211.468C264.94 209.882 265.161 208.504 265.316 207.334C265.602 205.359 265.927 203.396 266.29 201.447C266.653 199.497 267.017 197.652 267.38 195.91C267.458 195.52 267.549 195.078 267.653 194.584C267.757 194.064 267.873 193.492 268.003 192.869C265.459 192.947 263.46 193.155 262.007 193.492C260.553 193.83 259.515 194.311 258.892 194.935C258.295 195.533 257.996 196.313 257.996 197.275C257.996 198.158 258.256 199.003 258.775 199.809C258.879 199.991 258.931 200.186 258.931 200.394C258.931 200.888 258.632 201.356 258.035 201.798C257.464 202.214 256.867 202.422 256.244 202.422C255.803 202.422 255.439 202.292 255.154 202.032C254.635 201.59 254.206 200.966 253.869 200.16C253.532 199.328 253.363 198.392 253.363 197.353C253.363 195.143 254.077 193.376 255.504 192.05C256.958 190.698 259.151 189.71 262.085 189.086C265.044 188.463 268.834 188.151 273.454 188.151C276.31 188.151 278.581 188.203 280.268 188.307C281.982 188.411 283.474 188.58 284.746 188.813ZM302.629 212.481C302.966 212.481 303.226 212.637 303.407 212.949C303.615 213.261 303.719 213.69 303.719 214.236C303.719 215.276 303.472 216.082 302.979 216.653C301.785 218.031 300.552 219.162 299.28 220.046C298.034 220.93 296.606 221.371 294.997 221.371C293.673 221.371 292.674 220.995 291.999 220.241C291.324 219.461 290.986 218.343 290.986 216.887C290.986 216.16 291.168 214.86 291.531 212.988C291.869 211.351 292.038 210.22 292.038 209.596C292.038 209.18 291.895 208.972 291.609 208.972C291.272 208.972 290.792 209.414 290.169 210.298C289.546 211.156 288.923 212.299 288.3 213.729C287.677 215.159 287.171 216.666 286.781 218.252C286.288 220.332 285.068 221.371 283.121 221.371C282.342 221.371 281.823 221.099 281.564 220.553C281.33 219.981 281.213 218.967 281.213 217.511C281.213 216.679 281.226 216.017 281.252 215.523L281.291 212.403C281.291 208.4 281.693 204.228 282.498 199.887C283.329 195.546 284.536 191.907 286.119 188.969C287.729 186.006 289.65 184.524 291.882 184.524C293.076 184.524 294.036 185.044 294.763 186.084C295.516 187.098 295.892 188.424 295.892 190.061C295.892 192.687 295.127 195.416 293.595 198.249C292.064 201.057 289.572 204.345 286.119 208.114C286.041 209.466 286.002 210.857 286.002 212.286C286.859 210.077 287.806 208.283 288.845 206.906C289.909 205.502 290.947 204.501 291.96 203.903C292.998 203.305 293.946 203.006 294.802 203.006C296.489 203.006 297.333 203.851 297.333 205.541C297.333 206.555 297.048 208.387 296.476 211.039C295.983 213.3 295.737 214.795 295.737 215.523C295.737 216.563 296.113 217.082 296.866 217.082C297.385 217.082 297.995 216.77 298.696 216.147C299.423 215.497 300.383 214.457 301.577 213.027C301.889 212.663 302.239 212.481 302.629 212.481ZM291.064 188.385C290.597 188.385 290.078 189.06 289.507 190.412C288.936 191.738 288.378 193.544 287.832 195.832C287.313 198.093 286.885 200.563 286.548 203.24C288.157 201.343 289.481 199.276 290.519 197.041C291.583 194.805 292.116 192.778 292.116 190.958C292.116 190.126 292.025 189.489 291.843 189.047C291.661 188.606 291.402 188.385 291.064 188.385ZM305.664 200.433C304.574 200.433 303.756 200.186 303.211 199.692C302.666 199.172 302.393 198.457 302.393 197.548C302.393 196.638 302.744 195.884 303.444 195.286C304.171 194.662 305.067 194.35 306.131 194.35C307.092 194.35 307.87 194.584 308.467 195.052C309.064 195.52 309.363 196.183 309.363 197.041C309.363 198.081 309.025 198.912 308.35 199.536C307.676 200.134 306.78 200.433 305.664 200.433ZM305.352 221.371C303.665 221.371 302.432 220.774 301.653 219.578C300.901 218.382 300.524 216.796 300.524 214.821C300.524 213.651 300.667 212.156 300.952 210.337C301.264 208.491 301.653 206.776 302.121 205.19C302.354 204.358 302.666 203.786 303.055 203.474C303.444 203.162 304.067 203.006 304.924 203.006C306.248 203.006 306.91 203.448 306.91 204.332C306.91 204.982 306.663 206.49 306.17 208.855C305.547 211.715 305.235 213.651 305.235 214.665C305.235 215.445 305.339 216.043 305.547 216.459C305.755 216.874 306.105 217.082 306.598 217.082C307.066 217.082 307.65 216.757 308.35 216.108C309.051 215.458 309.986 214.431 311.154 213.027C311.465 212.663 311.816 212.481 312.205 212.481C312.543 212.481 312.802 212.637 312.984 212.949C313.192 213.261 313.295 213.69 313.295 214.236C313.295 215.276 313.049 216.082 312.556 216.653C309.986 219.799 307.585 221.371 305.352 221.371ZM312.91 221.371C311.923 221.371 311.222 220.852 310.807 219.812C310.418 218.772 310.223 217.108 310.223 214.821C310.223 211.442 310.703 208.231 311.664 205.19C311.897 204.436 312.274 203.89 312.793 203.552C313.338 203.188 314.091 203.006 315.051 203.006C315.57 203.006 315.934 203.071 316.141 203.201C316.349 203.331 316.453 203.578 316.453 203.942C316.453 204.358 316.258 205.294 315.869 206.75C315.609 207.789 315.402 208.699 315.246 209.479C315.09 210.259 314.96 211.221 314.857 212.364C315.713 210.129 316.674 208.309 317.738 206.906C318.802 205.502 319.84 204.501 320.853 203.903C321.891 203.305 322.839 203.006 323.695 203.006C325.382 203.006 326.226 203.851 326.226 205.541C326.226 206.555 325.941 208.387 325.37 211.039C324.876 213.3 324.63 214.795 324.63 215.523C324.63 216.563 325.006 217.082 325.759 217.082C326.278 217.082 326.888 216.77 327.589 216.147C328.316 215.497 329.276 214.457 330.47 213.027C330.782 212.663 331.132 212.481 331.522 212.481C331.859 212.481 332.118 212.637 332.3 212.949C332.508 213.261 332.612 213.69 332.612 214.236C332.612 215.276 332.365 216.082 331.872 216.653C330.756 218.031 329.549 219.162 328.251 220.046C326.979 220.93 325.525 221.371 323.89 221.371C322.566 221.371 321.566 220.995 320.892 220.241C320.217 219.461 319.879 218.343 319.879 216.887C319.879 216.16 320.061 214.86 320.425 212.988C320.762 211.351 320.931 210.22 320.931 209.596C320.931 209.18 320.788 208.972 320.502 208.972C320.165 208.972 319.685 209.414 319.062 210.298C318.465 211.156 317.842 212.299 317.193 213.729C316.57 215.159 316.064 216.666 315.674 218.252C315.389 219.474 315.051 220.306 314.662 220.748C314.298 221.164 313.714 221.371 312.91 221.371ZM346.01 217.121C347.074 217.329 347.607 217.914 347.607 218.876C347.607 219.526 347.308 220.111 346.711 220.631C346.14 221.125 345.309 221.371 344.219 221.371C342.35 221.371 340.818 220.8 339.625 219.656C338.456 218.486 337.872 216.965 337.872 215.094C337.872 214.08 338.391 213.352 339.43 212.91C340.572 212.416 341.389 211.897 341.883 211.351C342.376 210.779 342.623 210.09 342.623 209.284C342.623 208.816 342.519 208.465 342.311 208.231C342.129 207.997 341.896 207.88 341.61 207.88C340.909 207.88 340.131 208.387 339.274 209.401C338.443 210.415 337.664 211.728 336.938 213.339C336.211 214.925 335.64 216.563 335.225 218.252C334.939 219.474 334.602 220.306 334.212 220.748C333.848 221.164 333.264 221.371 332.46 221.371C331.655 221.371 331.058 221.086 330.669 220.514C330.305 219.916 330.059 219.006 329.929 217.784C329.799 216.563 329.734 214.769 329.734 212.403C329.734 208.4 330.137 204.228 330.942 199.887C331.772 195.546 332.979 191.907 334.563 188.969C336.172 186.006 338.093 184.524 340.325 184.524C341.519 184.524 342.48 185.044 343.207 186.084C343.959 187.098 344.336 188.424 344.336 190.061C344.336 192.687 343.57 195.416 342.039 198.249C340.507 201.057 338.015 204.345 334.563 208.114C334.485 209.466 334.446 210.857 334.446 212.286C335.692 209.037 337.119 206.685 338.729 205.229C340.338 203.747 341.844 203.006 343.246 203.006C344.543 203.006 345.582 203.448 346.361 204.332C347.165 205.216 347.568 206.308 347.568 207.607C347.568 209.037 347.204 210.35 346.477 211.546C345.75 212.741 344.504 213.807 342.739 214.743C342.895 215.523 343.207 216.069 343.674 216.381C344.167 216.666 344.945 216.913 346.01 217.121ZM339.508 188.385C339.04 188.385 338.521 189.06 337.95 190.412C337.379 191.738 336.821 193.544 336.276 195.832C335.756 198.093 335.328 200.563 334.991 203.24C336.6 201.343 337.924 199.276 338.963 197.041C340.027 194.805 340.559 192.778 340.559 190.958C340.559 190.126 340.468 189.489 340.286 189.047C340.105 188.606 339.845 188.385 339.508 188.385Z" fill="#1E1E1E"/>
<path d="M274.784 229.359V230.649H273.035V235.966H271.428V230.649H269.68V229.359H274.784ZM280.694 230.658C281.295 230.658 281.778 230.859 282.141 231.26C282.504 231.656 282.686 232.202 282.686 232.898V235.966H281.088V233.115C281.088 232.763 280.998 232.49 280.816 232.296C280.634 232.101 280.39 232.004 280.083 232.004C279.776 232.004 279.531 232.101 279.35 232.296C279.168 232.49 279.077 232.763 279.077 233.115V235.966H277.47V229.002H279.077V231.42C279.24 231.189 279.462 231.003 279.744 230.865C280.026 230.727 280.343 230.658 280.694 230.658ZM286.491 230.169C286.209 230.169 285.977 230.087 285.795 229.924C285.62 229.755 285.532 229.547 285.532 229.303C285.532 229.052 285.62 228.845 285.795 228.682C285.977 228.512 286.209 228.427 286.491 228.427C286.767 228.427 286.992 228.512 287.168 228.682C287.349 228.845 287.44 229.052 287.44 229.303C287.44 229.547 287.349 229.755 287.168 229.924C286.992 230.087 286.767 230.169 286.491 230.169ZM287.29 230.715V235.966H285.683V230.715H287.29ZM293.53 230.658C294.144 230.658 294.633 230.859 294.996 231.26C295.366 231.656 295.551 232.202 295.551 232.898V235.966H293.953V233.115C293.953 232.763 293.862 232.49 293.68 232.296C293.498 232.101 293.254 232.004 292.947 232.004C292.64 232.004 292.396 232.101 292.214 232.296C292.032 232.49 291.941 232.763 291.941 233.115V235.966H290.334V230.715H291.941V231.411C292.104 231.179 292.324 230.997 292.599 230.865C292.875 230.727 293.185 230.658 293.53 230.658ZM301.752 235.966L300.154 233.764V235.966H298.547V229.002H300.154V232.851L301.743 230.715H303.726L301.545 233.35L303.744 235.966H301.752ZM306.114 234.743V233.444L309.084 229.19H310.88V233.35H311.65V234.743H310.88V235.966H309.272V234.743H306.114ZM309.385 230.959L307.806 233.35H309.385V230.959ZM314.261 234.677C314.474 234.508 314.571 234.429 314.552 234.442C315.166 233.933 315.649 233.516 316 233.19C316.357 232.864 316.657 232.522 316.902 232.164C317.146 231.806 317.268 231.458 317.268 231.119C317.268 230.862 317.209 230.661 317.09 230.517C316.971 230.372 316.792 230.3 316.554 230.3C316.316 230.3 316.128 230.391 315.99 230.573C315.859 230.749 315.793 231 315.793 231.326H314.242C314.255 230.793 314.367 230.347 314.58 229.99C314.8 229.632 315.085 229.369 315.436 229.199C315.793 229.03 316.187 228.945 316.62 228.945C317.365 228.945 317.926 229.137 318.302 229.519C318.684 229.902 318.875 230.401 318.875 231.016C318.875 231.687 318.647 232.311 318.189 232.889C317.732 233.459 317.149 234.018 316.441 234.564H318.979V235.872H314.261V234.677ZM323.333 229.002V235.966H321.726V229.002H323.333ZM326.058 233.331C326.058 232.791 326.158 232.318 326.358 231.91C326.565 231.502 326.844 231.189 327.195 230.969C327.546 230.749 327.937 230.639 328.37 230.639C328.74 230.639 329.063 230.715 329.338 230.865C329.62 231.016 329.836 231.213 329.986 231.458V230.715H331.593V235.966H329.986V235.223C329.83 235.468 329.61 235.665 329.328 235.816C329.053 235.966 328.73 236.042 328.36 236.042C327.935 236.042 327.546 235.932 327.195 235.712C326.844 235.486 326.565 235.17 326.358 234.762C326.158 234.348 326.058 233.871 326.058 233.331ZM329.986 233.34C329.986 232.939 329.874 232.622 329.648 232.39C329.429 232.158 329.159 232.042 328.84 232.042C328.52 232.042 328.248 232.158 328.022 232.39C327.803 232.616 327.693 232.93 327.693 233.331C327.693 233.732 327.803 234.052 328.022 234.291C328.248 234.523 328.52 234.639 328.84 234.639C329.159 234.639 329.429 234.523 329.648 234.291C329.874 234.059 329.986 233.742 329.986 233.34ZM336.243 231.458C336.393 231.213 336.61 231.016 336.892 230.865C337.174 230.715 337.496 230.639 337.86 230.639C338.292 230.639 338.684 230.749 339.034 230.969C339.386 231.189 339.662 231.502 339.862 231.91C340.068 232.318 340.172 232.791 340.172 233.331C340.172 233.871 340.068 234.348 339.862 234.762C339.662 235.17 339.386 235.486 339.034 235.712C338.684 235.932 338.292 236.042 337.86 236.042C337.49 236.042 337.168 235.97 336.892 235.825C336.616 235.675 336.4 235.477 336.243 235.232V235.966H334.636V229.002H336.243V231.458ZM338.536 233.331C338.536 232.93 338.424 232.616 338.198 232.39C337.979 232.158 337.707 232.042 337.38 232.042C337.061 232.042 336.788 232.158 336.563 232.39C336.344 232.622 336.234 232.939 336.234 233.34C336.234 233.742 336.344 234.059 336.563 234.291C336.788 234.523 337.061 234.639 337.38 234.639C337.7 234.639 337.972 234.523 338.198 234.291C338.424 234.052 338.536 233.732 338.536 233.331ZM345.028 236.042C344.571 236.042 344.163 235.963 343.806 235.806C343.449 235.65 343.167 235.436 342.96 235.166C342.754 234.89 342.638 234.583 342.613 234.244H344.201C344.22 234.426 344.304 234.573 344.455 234.686C344.605 234.799 344.79 234.856 345.009 234.856C345.21 234.856 345.364 234.818 345.47 234.743C345.583 234.661 345.639 234.558 345.639 234.432C345.639 234.282 345.561 234.172 345.404 234.103C345.248 234.028 344.994 233.946 344.643 233.858C344.267 233.77 343.954 233.679 343.703 233.585C343.452 233.485 343.236 233.331 343.054 233.124C342.873 232.911 342.782 232.625 342.782 232.267C342.782 231.966 342.864 231.693 343.026 231.449C343.195 231.198 343.44 231 343.759 230.856C344.086 230.711 344.471 230.639 344.915 230.639C345.573 230.639 346.09 230.803 346.466 231.129C346.849 231.455 347.068 231.888 347.124 232.427H345.639C345.614 232.245 345.533 232.101 345.395 231.995C345.263 231.888 345.088 231.835 344.868 231.835C344.68 231.835 344.537 231.872 344.436 231.947C344.336 232.017 344.286 232.114 344.286 232.239C344.286 232.39 344.364 232.503 344.521 232.578C344.684 232.653 344.934 232.729 345.272 232.804C345.661 232.904 345.977 233.005 346.222 233.105C346.466 233.199 346.68 233.356 346.861 233.576C347.049 233.789 347.146 234.078 347.152 234.442C347.152 234.749 347.065 235.025 346.889 235.27C346.72 235.509 346.473 235.697 346.147 235.835C345.827 235.972 345.454 236.042 345.028 236.042Z" fill="url(#paint0_linear)"/>
<path fill-rule="evenodd" clip-rule="evenodd" d="M314.416 177.76C315.136 178.129 315.488 178.739 315.491 179.62C315.493 180.375 315.376 180.734 314.789 181.761C314.215 182.765 314.196 182.695 315.198 183.246C315.857 183.608 315.787 183.647 316.373 182.599C317.274 180.989 318.593 180.295 319.751 180.821C321.618 181.669 321.066 184.023 318.843 184.687C318.138 184.898 318.077 184.899 316.433 184.743C316.22 184.722 315.994 185.058 314.41 187.749C313.429 189.416 312.625 190.809 312.624 190.845C312.623 190.882 312.829 191.031 313.083 191.178C313.414 191.369 313.545 191.509 313.545 191.672C313.545 191.958 313.362 192.144 313.088 192.136C312.973 192.133 311.793 191.507 310.467 190.745C308.209 189.448 308.057 189.342 308.057 189.071C308.057 188.588 308.338 188.511 308.928 188.833C309.206 188.984 309.452 189.075 309.475 189.035C309.499 188.994 310.308 187.61 311.275 185.959C312.241 184.308 313.032 182.933 313.032 182.903C313.032 182.873 312.829 182.604 312.581 182.304C311.643 181.171 311.397 179.774 311.942 178.677C312.325 177.907 312.781 177.6 313.543 177.601C313.855 177.602 314.247 177.672 314.416 177.76ZM312.958 178.772C312.379 179.398 312.44 180.481 313.111 181.484C313.317 181.792 313.514 182.044 313.547 182.044C313.581 182.044 313.825 181.632 314.089 181.13C314.488 180.373 314.571 180.122 314.571 179.673C314.571 179.24 314.518 179.07 314.311 178.827C313.904 178.351 313.367 178.329 312.958 178.772ZM318.44 181.678C318 181.863 317.646 182.252 317.142 183.103C316.661 183.916 316.677 183.943 317.661 183.956C318.688 183.968 319.6 183.474 319.91 182.738C320.139 182.195 319.653 181.554 319.004 181.543C318.875 181.541 318.621 181.602 318.44 181.678ZM311.91 186.669C310.023 189.895 310.101 189.52 311.193 190.11L311.779 190.428L312.475 189.24C312.858 188.587 313.648 187.244 314.23 186.256C314.812 185.268 315.287 184.428 315.285 184.388C315.283 184.348 314.949 184.129 314.542 183.9C313.885 183.531 313.789 183.503 313.691 183.648C313.631 183.738 312.829 185.097 311.91 186.669ZM310.186 191.357C311.237 191.953 312.032 192.468 312.067 192.576C312.132 192.778 311.855 193.152 311.641 193.152C311.57 193.152 310.701 192.691 309.708 192.128C308.041 191.183 307.903 191.082 307.903 190.819C307.903 190.583 308.127 190.325 308.332 190.325C308.35 190.325 309.184 190.789 310.186 191.357ZM309.298 192.676C309.812 192.967 310.308 193.266 310.401 193.342C310.651 193.546 310.615 193.944 310.335 194.07C310.134 194.16 309.942 194.086 309.012 193.56C307.724 192.833 307.623 192.737 307.783 192.392C307.953 192.025 308.241 192.079 309.298 192.676Z" fill="#1E1E1E"/>
<path d="M316.991 189.681C319.563 189.862 322.12 189.168 324.25 187.712C326.381 186.256 327.961 184.123 328.736 181.656C329.512 179.188 329.436 176.53 328.523 174.11C327.609 171.69 325.911 169.65 323.7 168.317C321.49 166.984 318.898 166.437 316.341 166.764C313.783 167.09 311.41 168.271 309.604 170.116C307.797 171.961 306.662 174.363 306.381 176.935C306.101 179.507 306.691 182.099 308.057 184.294" stroke="url(#paint1_linear)" stroke-width="5" stroke-linecap="round"/>
<defs>
<linearGradient id="paint0_linear" x1="308.727" y1="225.882" x2="308.727" y2="240" gradientUnits="userSpaceOnUse">
<stop stop-color="#FA8D3B"/>
<stop offset="0.515625" stop-color="#FDC73F"/>
<stop offset="1" stop-color="#FA8D3B"/>
</linearGradient>
<linearGradient id="paint1_linear" x1="310.82" y1="166.995" x2="324.832" y2="189.341" gradientUnits="userSpaceOnUse">
<stop stop-color="#FA8D3B"/>
<stop offset="0.515625" stop-color="#FDC73F"/>
<stop offset="1" stop-color="#FA8D3B"/>
</linearGradient>
</defs>
</svg>
