<svg width="600" height="400" viewBox="0 0 600 400" fill="none" xmlns="http://www.w3.org/2000/svg">
<rect width="600" height="400" fill="white"/>
<path fill-rule="evenodd" clip-rule="evenodd" d="M290.123 176.039C289.066 176.58 288.548 177.475 288.544 178.767C288.54 179.873 288.714 180.4 289.576 181.906C290.419 183.378 290.447 183.275 288.975 184.082C288.006 184.614 288.11 184.671 287.248 183.135C285.924 180.774 283.986 179.756 282.284 180.527C279.54 181.771 280.352 185.221 283.618 186.196C284.654 186.505 284.744 186.507 287.159 186.277C287.473 186.248 287.805 186.739 290.133 190.686C291.574 193.129 292.755 195.171 292.757 195.225C292.759 195.278 292.455 195.497 292.082 195.712C291.596 195.992 291.404 196.197 291.404 196.437C291.404 196.856 291.673 197.129 292.075 197.117C292.245 197.112 293.978 196.195 295.926 195.078C299.245 193.176 299.469 193.021 299.469 192.623C299.469 191.915 299.055 191.802 298.188 192.274C297.78 192.496 297.419 192.629 297.384 192.57C297.349 192.511 296.159 190.482 294.739 188.061C293.319 185.641 292.158 183.624 292.158 183.58C292.158 183.537 292.456 183.141 292.82 182.702C294.198 181.04 294.56 178.992 293.759 177.384C293.196 176.254 292.526 175.805 291.407 175.807C290.947 175.807 290.372 175.911 290.123 176.039ZM292.265 177.523C293.117 178.441 293.027 180.028 292.041 181.499C291.738 181.951 291.45 182.32 291.4 182.32C291.351 182.32 290.992 181.717 290.603 180.98C290.018 179.871 289.896 179.502 289.896 178.844C289.896 178.209 289.973 177.959 290.278 177.603C290.876 176.906 291.664 176.874 292.265 177.523ZM284.211 181.784C284.857 182.056 285.378 182.626 286.118 183.873C286.825 185.065 286.8 185.105 285.355 185.123C283.846 185.142 282.505 184.417 282.05 183.337C281.714 182.542 282.429 181.602 283.382 181.586C283.571 181.583 283.944 181.672 284.211 181.784ZM293.807 189.102C296.579 193.831 296.464 193.281 294.86 194.147L293.998 194.612L292.975 192.871C292.413 191.913 291.252 189.945 290.397 188.496C289.541 187.048 288.843 185.815 288.846 185.757C288.849 185.699 289.341 185.377 289.939 185.042C290.903 184.501 291.045 184.459 291.188 184.672C291.277 184.803 292.456 186.797 293.807 189.102ZM296.34 195.975C294.796 196.849 293.627 197.604 293.575 197.762C293.48 198.058 293.887 198.607 294.201 198.607C294.305 198.607 295.583 197.931 297.042 197.105C299.491 195.719 299.695 195.572 299.695 195.186C299.695 194.84 299.365 194.461 299.064 194.461C299.038 194.461 297.812 195.142 296.34 195.975ZM297.644 197.909C296.889 198.335 296.16 198.774 296.023 198.885C295.656 199.184 295.71 199.768 296.121 199.952C296.415 200.084 296.698 199.976 298.064 199.206C299.958 198.138 300.106 197.998 299.871 197.492C299.621 196.954 299.198 197.033 297.644 197.909Z" fill="#1E1E1E"/>
<path d="M286.285 192.757C282.676 193.01 279.089 192.039 276.1 190.001C273.11 187.963 270.893 184.977 269.805 181.522C268.718 178.068 268.823 174.347 270.105 170.959C271.387 167.571 273.771 164.713 276.872 162.848C279.973 160.982 283.611 160.216 287.199 160.673C290.787 161.13 294.116 162.783 296.651 165.366C299.185 167.949 300.778 171.311 301.172 174.912C301.566 178.513 300.738 182.142 298.82 185.215" stroke="url(#paint0_linear)" stroke-width="4" stroke-linecap="round"/>
<path d="M263.704 202.2V206.177H258.3V222.581H253.331V206.177H247.926V202.2H263.704ZM281.976 206.206C283.836 206.206 285.327 206.826 286.451 208.065C287.574 209.284 288.136 210.968 288.136 213.116V222.581H283.196V213.784C283.196 212.7 282.916 211.858 282.354 211.258C281.792 210.658 281.037 210.358 280.087 210.358C279.138 210.358 278.383 210.658 277.821 211.258C277.259 211.858 276.978 212.7 276.978 213.784V222.581H272.009V201.097H276.978V208.558C277.482 207.842 278.17 207.271 279.041 206.845C279.913 206.419 280.891 206.206 281.976 206.206ZM299.899 204.697C299.028 204.697 298.311 204.445 297.749 203.942C297.207 203.419 296.936 202.781 296.936 202.026C296.936 201.252 297.207 200.613 297.749 200.11C298.311 199.587 299.028 199.326 299.899 199.326C300.752 199.326 301.449 199.587 301.991 200.11C302.553 200.613 302.834 201.252 302.834 202.026C302.834 202.781 302.553 203.419 301.991 203.942C301.449 204.445 300.752 204.697 299.899 204.697ZM302.369 206.381V222.581H297.4V206.381H302.369ZM321.661 206.206C323.559 206.206 325.07 206.826 326.194 208.065C327.337 209.284 327.908 210.968 327.908 213.116V222.581H322.968V213.784C322.968 212.7 322.688 211.858 322.126 211.258C321.564 210.658 320.809 210.358 319.859 210.358C318.91 210.358 318.155 210.658 317.593 211.258C317.031 211.858 316.75 212.7 316.75 213.784V222.581H311.781V206.381H316.75V208.529C317.254 207.813 317.932 207.252 318.784 206.845C319.637 206.419 320.595 206.206 321.661 206.206ZM347.081 222.581L342.141 215.787V222.581H337.172V201.097H342.141V212.971L347.052 206.381H353.183L346.442 214.51L353.241 222.581H347.081Z" fill="#1E1E1E"/>
<path d="M252.168 232.306V233.5H249.101V243.548H247.632V233.5H244.549V232.306H252.168ZM259.982 234.548C260.649 234.548 261.252 234.694 261.79 234.984C262.328 235.263 262.747 235.688 263.049 236.258C263.361 236.828 263.517 237.521 263.517 238.339V243.548H262.064V238.548C262.064 237.667 261.843 236.995 261.402 236.532C260.961 236.059 260.358 235.823 259.594 235.823C258.819 235.823 258.201 236.064 257.738 236.548C257.286 237.032 257.06 237.737 257.06 238.661V243.548H255.591V231.613H257.06V235.968C257.35 235.516 257.749 235.167 258.254 234.919C258.771 234.672 259.347 234.548 259.982 234.548ZM268.289 233.274C268.01 233.274 267.773 233.177 267.579 232.984C267.385 232.79 267.289 232.554 267.289 232.274C267.289 231.995 267.385 231.758 267.579 231.564C267.773 231.371 268.01 231.274 268.289 231.274C268.559 231.274 268.785 231.371 268.967 231.564C269.161 231.758 269.258 231.995 269.258 232.274C269.258 232.554 269.161 232.79 268.967 232.984C268.785 233.177 268.559 233.274 268.289 233.274ZM269 234.71V243.548H267.531V234.71H269ZM277.428 234.548C278.504 234.548 279.376 234.876 280.043 235.532C280.71 236.177 281.044 237.113 281.044 238.339V243.548H279.591V238.548C279.591 237.667 279.37 236.995 278.929 236.532C278.488 236.059 277.885 235.823 277.121 235.823C276.346 235.823 275.727 236.064 275.265 236.548C274.813 237.032 274.587 237.737 274.587 238.661V243.548H273.118V234.71H274.587V235.968C274.877 235.516 275.27 235.167 275.765 234.919C276.271 234.672 276.825 234.548 277.428 234.548ZM289.998 243.548L286.527 239.645V243.548H285.058V231.613H286.527V238.629L289.933 234.71H291.983L287.818 239.113L291.999 243.548H289.998ZM294.383 240.952V239.839L300.049 232H301.808V239.677H303.423V240.952H301.808V243.548H300.355V240.952H294.383ZM300.42 233.532L296.078 239.677H300.42V233.532ZM306.327 242.371C307.694 241.274 308.764 240.376 309.539 239.677C310.314 238.968 310.965 238.231 311.493 237.468C312.031 236.694 312.3 235.935 312.3 235.194C312.3 234.495 312.128 233.946 311.783 233.548C311.45 233.14 310.906 232.935 310.153 232.935C309.421 232.935 308.851 233.167 308.442 233.629C308.043 234.081 307.828 234.688 307.796 235.452H306.375C306.418 234.247 306.784 233.317 307.473 232.661C308.162 232.005 309.05 231.677 310.137 231.677C311.245 231.677 312.122 231.984 312.768 232.597C313.424 233.21 313.753 234.054 313.753 235.129C313.753 236.021 313.484 236.892 312.945 237.742C312.418 238.581 311.815 239.323 311.137 239.968C310.459 240.602 309.593 241.344 308.538 242.194H314.092V243.419H306.327V242.371ZM319.115 231.613V243.548H317.646V231.613H319.115ZM322.684 239.097C322.684 238.194 322.867 237.403 323.233 236.726C323.599 236.038 324.1 235.505 324.734 235.129C325.38 234.753 326.096 234.564 326.881 234.564C327.656 234.564 328.329 234.731 328.899 235.064C329.47 235.398 329.895 235.817 330.175 236.323V234.71H331.66V243.548H330.175V241.903C329.884 242.419 329.448 242.849 328.867 243.194C328.297 243.527 327.629 243.694 326.865 243.694C326.08 243.694 325.369 243.5 324.734 243.113C324.1 242.726 323.599 242.183 323.233 241.484C322.867 240.785 322.684 239.989 322.684 239.097ZM330.175 239.113C330.175 238.446 330.04 237.866 329.771 237.371C329.502 236.876 329.136 236.5 328.673 236.242C328.221 235.973 327.721 235.839 327.172 235.839C326.623 235.839 326.123 235.968 325.671 236.226C325.219 236.484 324.858 236.86 324.589 237.355C324.32 237.849 324.186 238.43 324.186 239.097C324.186 239.774 324.32 240.366 324.589 240.871C324.858 241.366 325.219 241.747 325.671 242.016C326.123 242.274 326.623 242.403 327.172 242.403C327.721 242.403 328.221 242.274 328.673 242.016C329.136 241.747 329.502 241.366 329.771 240.871C330.04 240.366 330.175 239.779 330.175 239.113ZM337.225 236.355C337.527 235.828 337.968 235.398 338.549 235.064C339.13 234.731 339.792 234.564 340.535 234.564C341.331 234.564 342.047 234.753 342.682 235.129C343.317 235.505 343.817 236.038 344.183 236.726C344.549 237.403 344.732 238.194 344.732 239.097C344.732 239.989 344.549 240.785 344.183 241.484C343.817 242.183 343.311 242.726 342.666 243.113C342.031 243.5 341.32 243.694 340.535 243.694C339.771 243.694 339.098 243.527 338.517 243.194C337.947 242.86 337.516 242.435 337.225 241.919V243.548H335.756V231.613H337.225V236.355ZM343.231 239.097C343.231 238.43 343.096 237.849 342.827 237.355C342.558 236.86 342.192 236.484 341.729 236.226C341.277 235.968 340.777 235.839 340.228 235.839C339.69 235.839 339.19 235.973 338.727 236.242C338.275 236.5 337.909 236.882 337.629 237.387C337.36 237.882 337.225 238.457 337.225 239.113C337.225 239.779 337.36 240.366 337.629 240.871C337.909 241.366 338.275 241.747 338.727 242.016C339.19 242.274 339.69 242.403 340.228 242.403C340.777 242.403 341.277 242.274 341.729 242.016C342.192 241.747 342.558 241.366 342.827 240.871C343.096 240.366 343.231 239.774 343.231 239.097ZM351.411 243.694C350.733 243.694 350.126 243.581 349.587 243.355C349.049 243.118 348.624 242.796 348.312 242.387C348 241.968 347.828 241.489 347.795 240.952H349.313C349.356 241.392 349.561 241.753 349.926 242.032C350.303 242.312 350.793 242.452 351.395 242.452C351.955 242.452 352.396 242.328 352.719 242.081C353.042 241.833 353.203 241.521 353.203 241.145C353.203 240.758 353.031 240.473 352.687 240.29C352.342 240.097 351.81 239.909 351.089 239.726C350.432 239.554 349.894 239.382 349.474 239.21C349.065 239.027 348.71 238.763 348.409 238.419C348.118 238.064 347.973 237.602 347.973 237.032C347.973 236.581 348.108 236.167 348.377 235.79C348.646 235.414 349.028 235.118 349.523 234.903C350.018 234.677 350.583 234.564 351.218 234.564C352.197 234.564 352.988 234.812 353.591 235.306C354.194 235.801 354.516 236.479 354.559 237.339H353.09C353.058 236.876 352.87 236.505 352.525 236.226C352.192 235.946 351.74 235.806 351.169 235.806C350.642 235.806 350.222 235.919 349.91 236.145C349.598 236.371 349.442 236.667 349.442 237.032C349.442 237.323 349.534 237.564 349.716 237.758C349.91 237.941 350.147 238.091 350.427 238.21C350.717 238.317 351.116 238.441 351.621 238.581C352.256 238.753 352.773 238.925 353.171 239.097C353.569 239.258 353.908 239.505 354.188 239.839C354.479 240.172 354.629 240.608 354.64 241.145C354.64 241.629 354.506 242.064 354.236 242.452C353.968 242.839 353.585 243.145 353.09 243.371C352.606 243.586 352.047 243.694 351.411 243.694Z" fill="url(#paint1_linear)"/>
<defs>
<linearGradient id="paint0_linear" x1="295.407" y1="160.256" x2="274.883" y2="193.06" gradientUnits="userSpaceOnUse">
<stop stop-color="#FA8D3B"/>
<stop offset="0.515625" stop-color="#FDC73F"/>
<stop offset="1" stop-color="#FA8D3B"/>
</linearGradient>
<linearGradient id="paint1_linear" x1="300.5" y1="225.806" x2="300.5" y2="250" gradientUnits="userSpaceOnUse">
<stop stop-color="#FA8D3B"/>
<stop offset="0.515625" stop-color="#FDC73F"/>
<stop offset="1" stop-color="#FA8D3B"/>
</linearGradient>
</defs>
</svg>
