<svg width="600" height="400" viewBox="0 0 600 400" fill="none" xmlns="http://www.w3.org/2000/svg">
<rect width="600" height="400" fill="white"/>
<path d="M277.778 182.86C278.977 183.092 279.866 183.498 280.446 184.078C281.065 184.658 281.374 185.335 281.374 186.108C281.374 187.384 281.007 188.312 280.272 188.892C279.576 189.472 278.455 189.704 276.908 189.588C273.428 189.317 270.702 189.143 268.73 189.066C266.797 188.95 264.245 188.873 261.074 188.834C259.643 195.949 258.329 203.102 257.13 210.294C256.705 212.923 256.26 215.978 255.796 219.458C255.332 222.899 255.023 225.683 254.868 227.81C254.791 228.931 254.327 229.801 253.476 230.42C252.625 231 251.601 231.29 250.402 231.29C249.126 231.29 248.14 230.981 247.444 230.362C246.748 229.743 246.4 228.931 246.4 227.926C246.4 226.998 246.535 225.471 246.806 223.344C247.115 221.179 247.463 218.917 247.85 216.558C248.275 214.199 248.604 212.15 248.836 210.41C249.261 207.471 249.745 204.552 250.286 201.652C250.827 198.752 251.369 196.007 251.91 193.416C252.026 192.836 252.161 192.179 252.316 191.444C252.471 190.671 252.645 189.82 252.838 188.892C249.049 189.008 246.071 189.317 243.906 189.82C241.741 190.323 240.194 191.038 239.266 191.966C238.377 192.855 237.932 194.015 237.932 195.446C237.932 196.761 238.319 198.017 239.092 199.216C239.247 199.487 239.324 199.777 239.324 200.086C239.324 200.821 238.879 201.517 237.99 202.174C237.139 202.793 236.25 203.102 235.322 203.102C234.665 203.102 234.123 202.909 233.698 202.522C232.925 201.865 232.287 200.937 231.784 199.738C231.281 198.501 231.03 197.109 231.03 195.562C231.03 192.275 232.093 189.646 234.22 187.674C236.385 185.663 239.653 184.194 244.022 183.266C248.43 182.338 254.075 181.874 260.958 181.874C265.211 181.874 268.595 181.951 271.108 182.106C273.66 182.261 275.883 182.512 277.778 182.86ZM304.415 218.066C304.918 218.066 305.305 218.298 305.575 218.762C305.885 219.226 306.039 219.864 306.039 220.676C306.039 222.223 305.672 223.421 304.937 224.272C303.159 226.321 301.322 228.003 299.427 229.318C297.571 230.633 295.445 231.29 293.047 231.29C291.075 231.29 289.587 230.729 288.581 229.608C287.576 228.448 287.073 226.785 287.073 224.62C287.073 223.537 287.344 221.604 287.885 218.82C288.388 216.384 288.639 214.702 288.639 213.774C288.639 213.155 288.427 212.846 288.001 212.846C287.499 212.846 286.783 213.503 285.855 214.818C284.927 216.094 283.999 217.795 283.071 219.922C282.143 222.049 281.389 224.291 280.809 226.65C280.075 229.743 278.257 231.29 275.357 231.29C274.197 231.29 273.424 230.884 273.037 230.072C272.689 229.221 272.515 227.713 272.515 225.548C272.515 224.311 272.535 223.325 272.573 222.59L272.631 217.95C272.631 211.995 273.231 205.789 274.429 199.332C275.667 192.875 277.465 187.461 279.823 183.092C282.221 178.684 285.082 176.48 288.407 176.48C290.186 176.48 291.617 177.253 292.699 178.8C293.821 180.308 294.381 182.28 294.381 184.716C294.381 188.621 293.241 192.681 290.959 196.896C288.678 201.072 284.966 205.963 279.823 211.57C279.707 213.581 279.649 215.649 279.649 217.776C280.925 214.489 282.337 211.821 283.883 209.772C285.469 207.684 287.015 206.195 288.523 205.306C290.07 204.417 291.481 203.972 292.757 203.972C295.271 203.972 296.527 205.229 296.527 207.742C296.527 209.25 296.102 211.976 295.251 215.92C294.517 219.284 294.149 221.507 294.149 222.59C294.149 224.137 294.71 224.91 295.831 224.91C296.605 224.91 297.513 224.446 298.557 223.518C299.64 222.551 301.071 221.005 302.849 218.878C303.313 218.337 303.835 218.066 304.415 218.066ZM287.189 182.222C286.493 182.222 285.72 183.227 284.869 185.238C284.019 187.21 283.187 189.897 282.375 193.3C281.602 196.664 280.964 200.337 280.461 204.32C282.859 201.497 284.831 198.423 286.377 195.098C287.963 191.773 288.755 188.757 288.755 186.05C288.755 184.813 288.62 183.865 288.349 183.208C288.079 182.551 287.692 182.222 287.189 182.222ZM308.937 200.144C307.313 200.144 306.095 199.777 305.283 199.042C304.471 198.269 304.065 197.205 304.065 195.852C304.065 194.499 304.587 193.377 305.631 192.488C306.713 191.56 308.047 191.096 309.633 191.096C311.063 191.096 312.223 191.444 313.113 192.14C314.002 192.836 314.447 193.822 314.447 195.098C314.447 196.645 313.944 197.882 312.939 198.81C311.933 199.699 310.599 200.144 308.937 200.144ZM308.473 231.29C305.959 231.29 304.123 230.401 302.963 228.622C301.841 226.843 301.281 224.485 301.281 221.546C301.281 219.806 301.493 217.583 301.919 214.876C302.383 212.131 302.963 209.579 303.659 207.22C304.007 205.983 304.471 205.132 305.051 204.668C305.631 204.204 306.559 203.972 307.835 203.972C309.807 203.972 310.793 204.629 310.793 205.944C310.793 206.911 310.425 209.153 309.691 212.672C308.763 216.925 308.299 219.806 308.299 221.314C308.299 222.474 308.453 223.363 308.763 223.982C309.072 224.601 309.594 224.91 310.329 224.91C311.025 224.91 311.895 224.427 312.939 223.46C313.983 222.493 315.375 220.966 317.115 218.878C317.579 218.337 318.101 218.066 318.681 218.066C319.183 218.066 319.57 218.298 319.841 218.762C320.15 219.226 320.305 219.864 320.305 220.676C320.305 222.223 319.937 223.421 319.203 224.272C315.375 228.951 311.798 231.29 308.473 231.29ZM319.73 231.29C318.261 231.29 317.217 230.517 316.598 228.97C316.018 227.423 315.728 224.949 315.728 221.546C315.728 216.519 316.443 211.744 317.874 207.22C318.222 206.099 318.783 205.287 319.556 204.784C320.368 204.243 321.489 203.972 322.92 203.972C323.693 203.972 324.235 204.069 324.544 204.262C324.853 204.455 325.008 204.823 325.008 205.364C325.008 205.983 324.718 207.375 324.138 209.54C323.751 211.087 323.442 212.44 323.21 213.6C322.978 214.76 322.785 216.191 322.63 217.892C323.906 214.567 325.337 211.86 326.922 209.772C328.507 207.684 330.054 206.195 331.562 205.306C333.109 204.417 334.52 203.972 335.796 203.972C338.309 203.972 339.566 205.229 339.566 207.742C339.566 209.25 339.141 211.976 338.29 215.92C337.555 219.284 337.188 221.507 337.188 222.59C337.188 224.137 337.749 224.91 338.87 224.91C339.643 224.91 340.552 224.446 341.596 223.518C342.679 222.551 344.109 221.005 345.888 218.878C346.352 218.337 346.874 218.066 347.454 218.066C347.957 218.066 348.343 218.298 348.614 218.762C348.923 219.226 349.078 219.864 349.078 220.676C349.078 222.223 348.711 223.421 347.976 224.272C346.313 226.321 344.515 228.003 342.582 229.318C340.687 230.633 338.522 231.29 336.086 231.29C334.114 231.29 332.625 230.729 331.62 229.608C330.615 228.448 330.112 226.785 330.112 224.62C330.112 223.537 330.383 221.604 330.924 218.82C331.427 216.384 331.678 214.702 331.678 213.774C331.678 213.155 331.465 212.846 331.04 212.846C330.537 212.846 329.822 213.503 328.894 214.818C328.005 216.094 327.077 217.795 326.11 219.922C325.182 222.049 324.428 224.291 323.848 226.65C323.423 228.467 322.92 229.705 322.34 230.362C321.799 230.981 320.929 231.29 319.73 231.29ZM369.036 224.968C370.621 225.277 371.414 226.147 371.414 227.578C371.414 228.545 370.969 229.415 370.08 230.188C369.229 230.923 367.992 231.29 366.368 231.29C363.584 231.29 361.302 230.439 359.524 228.738C357.784 226.998 356.914 224.736 356.914 221.952C356.914 220.444 357.687 219.361 359.234 218.704C360.935 217.969 362.153 217.196 362.888 216.384C363.622 215.533 363.99 214.509 363.99 213.31C363.99 212.614 363.835 212.092 363.526 211.744C363.255 211.396 362.907 211.222 362.482 211.222C361.438 211.222 360.278 211.976 359.002 213.484C357.764 214.992 356.604 216.945 355.522 219.342C354.439 221.701 353.588 224.137 352.97 226.65C352.544 228.467 352.042 229.705 351.462 230.362C350.92 230.981 350.05 231.29 348.852 231.29C347.653 231.29 346.764 230.865 346.184 230.014C345.642 229.125 345.275 227.771 345.082 225.954C344.888 224.137 344.792 221.469 344.792 217.95C344.792 211.995 345.391 205.789 346.59 199.332C347.827 192.875 349.625 187.461 351.984 183.092C354.381 178.684 357.242 176.48 360.568 176.48C362.346 176.48 363.777 177.253 364.86 178.8C365.981 180.308 366.542 182.28 366.542 184.716C366.542 188.621 365.401 192.681 363.12 196.896C360.838 201.072 357.126 205.963 351.984 211.57C351.868 213.581 351.81 215.649 351.81 217.776C353.666 212.943 355.792 209.443 358.19 207.278C360.587 205.074 362.83 203.972 364.918 203.972C366.851 203.972 368.398 204.629 369.558 205.944C370.756 207.259 371.356 208.883 371.356 210.816C371.356 212.943 370.814 214.895 369.732 216.674C368.649 218.453 366.793 220.038 364.164 221.43C364.396 222.59 364.86 223.402 365.556 223.866C366.29 224.291 367.45 224.659 369.036 224.968ZM359.35 182.222C358.654 182.222 357.88 183.227 357.03 185.238C356.179 187.21 355.348 189.897 354.536 193.3C353.762 196.664 353.124 200.337 352.622 204.32C355.019 201.497 356.991 198.423 358.538 195.098C360.123 191.773 360.916 188.757 360.916 186.05C360.916 184.813 360.78 183.865 360.51 183.208C360.239 182.551 359.852 182.222 359.35 182.222Z" fill="#1E1E1E"/>
<path d="M262.938 243.172V245.09H260.334V253H257.94V245.09H255.336V243.172H262.938ZM271.741 245.104C272.637 245.104 273.356 245.403 273.897 246C274.439 246.588 274.709 247.4 274.709 248.436V253H272.329V248.758C272.329 248.235 272.194 247.829 271.923 247.54C271.653 247.251 271.289 247.106 270.831 247.106C270.374 247.106 270.01 247.251 269.739 247.54C269.469 247.829 269.333 248.235 269.333 248.758V253H266.939V242.64H269.333V246.238C269.576 245.893 269.907 245.617 270.327 245.412C270.747 245.207 271.219 245.104 271.741 245.104ZM280.377 244.376C279.957 244.376 279.612 244.255 279.341 244.012C279.08 243.76 278.949 243.452 278.949 243.088C278.949 242.715 279.08 242.407 279.341 242.164C279.612 241.912 279.957 241.786 280.377 241.786C280.788 241.786 281.124 241.912 281.385 242.164C281.656 242.407 281.791 242.715 281.791 243.088C281.791 243.452 281.656 243.76 281.385 244.012C281.124 244.255 280.788 244.376 280.377 244.376ZM281.567 245.188V253H279.173V245.188H281.567ZM290.862 245.104C291.777 245.104 292.505 245.403 293.046 246C293.597 246.588 293.872 247.4 293.872 248.436V253H291.492V248.758C291.492 248.235 291.357 247.829 291.086 247.54C290.815 247.251 290.451 247.106 289.994 247.106C289.537 247.106 289.173 247.251 288.902 247.54C288.631 247.829 288.496 248.235 288.496 248.758V253H286.102V245.188H288.496V246.224C288.739 245.879 289.065 245.608 289.476 245.412C289.887 245.207 290.349 245.104 290.862 245.104ZM303.11 253L300.73 249.724V253H298.336V242.64H300.73V248.366L303.096 245.188H306.05L302.802 249.108L306.078 253H303.11ZM309.608 251.18V249.248L314.032 242.92H316.706V249.108H317.854V251.18H316.706V253H314.312V251.18H309.608ZM314.48 245.552L312.128 249.108H314.48V245.552ZM321.742 251.082C322.06 250.83 322.204 250.713 322.176 250.732C323.091 249.976 323.81 249.355 324.332 248.87C324.864 248.385 325.312 247.876 325.676 247.344C326.04 246.812 326.222 246.294 326.222 245.79C326.222 245.407 326.134 245.109 325.956 244.894C325.779 244.679 325.513 244.572 325.158 244.572C324.804 244.572 324.524 244.707 324.318 244.978C324.122 245.239 324.024 245.613 324.024 246.098H321.714C321.733 245.305 321.901 244.642 322.218 244.11C322.545 243.578 322.97 243.186 323.492 242.934C324.024 242.682 324.612 242.556 325.256 242.556C326.367 242.556 327.202 242.841 327.762 243.41C328.332 243.979 328.616 244.721 328.616 245.636C328.616 246.635 328.276 247.563 327.594 248.422C326.913 249.271 326.045 250.102 324.99 250.914H328.77V252.86H321.742V251.082ZM335.257 242.64V253H332.863V242.64H335.257ZM339.315 249.08C339.315 248.277 339.465 247.573 339.763 246.966C340.071 246.359 340.487 245.893 341.009 245.566C341.532 245.239 342.115 245.076 342.759 245.076C343.31 245.076 343.791 245.188 344.201 245.412C344.621 245.636 344.943 245.93 345.167 246.294V245.188H347.561V253H345.167V251.894C344.934 252.258 344.607 252.552 344.187 252.776C343.777 253 343.296 253.112 342.745 253.112C342.111 253.112 341.532 252.949 341.009 252.622C340.487 252.286 340.071 251.815 339.763 251.208C339.465 250.592 339.315 249.883 339.315 249.08ZM345.167 249.094C345.167 248.497 344.999 248.025 344.663 247.68C344.337 247.335 343.935 247.162 343.459 247.162C342.983 247.162 342.577 247.335 342.241 247.68C341.915 248.016 341.751 248.483 341.751 249.08C341.751 249.677 341.915 250.153 342.241 250.508C342.577 250.853 342.983 251.026 343.459 251.026C343.935 251.026 344.337 250.853 344.663 250.508C344.999 250.163 345.167 249.691 345.167 249.094ZM354.487 246.294C354.711 245.93 355.033 245.636 355.453 245.412C355.873 245.188 356.354 245.076 356.895 245.076C357.539 245.076 358.123 245.239 358.645 245.566C359.168 245.893 359.579 246.359 359.877 246.966C360.185 247.573 360.339 248.277 360.339 249.08C360.339 249.883 360.185 250.592 359.877 251.208C359.579 251.815 359.168 252.286 358.645 252.622C358.123 252.949 357.539 253.112 356.895 253.112C356.345 253.112 355.864 253.005 355.453 252.79C355.043 252.566 354.721 252.272 354.487 251.908V253H352.093V242.64H354.487V246.294ZM357.903 249.08C357.903 248.483 357.735 248.016 357.399 247.68C357.073 247.335 356.667 247.162 356.181 247.162C355.705 247.162 355.299 247.335 354.963 247.68C354.637 248.025 354.473 248.497 354.473 249.094C354.473 249.691 354.637 250.163 354.963 250.508C355.299 250.853 355.705 251.026 356.181 251.026C356.657 251.026 357.063 250.853 357.399 250.508C357.735 250.153 357.903 249.677 357.903 249.08ZM367.573 253.112C366.892 253.112 366.285 252.995 365.753 252.762C365.221 252.529 364.801 252.211 364.493 251.81C364.185 251.399 364.013 250.942 363.975 250.438H366.341C366.369 250.709 366.495 250.928 366.719 251.096C366.943 251.264 367.219 251.348 367.545 251.348C367.844 251.348 368.073 251.292 368.231 251.18C368.399 251.059 368.483 250.905 368.483 250.718C368.483 250.494 368.367 250.331 368.133 250.228C367.9 250.116 367.522 249.995 366.999 249.864C366.439 249.733 365.973 249.598 365.599 249.458C365.226 249.309 364.904 249.08 364.633 248.772C364.363 248.455 364.227 248.03 364.227 247.498C364.227 247.05 364.349 246.644 364.591 246.28C364.843 245.907 365.207 245.613 365.683 245.398C366.169 245.183 366.743 245.076 367.405 245.076C368.385 245.076 369.155 245.319 369.715 245.804C370.285 246.289 370.611 246.933 370.695 247.736H368.483C368.446 247.465 368.325 247.251 368.119 247.092C367.923 246.933 367.662 246.854 367.335 246.854C367.055 246.854 366.841 246.91 366.691 247.022C366.542 247.125 366.467 247.269 366.467 247.456C366.467 247.68 366.584 247.848 366.817 247.96C367.06 248.072 367.433 248.184 367.937 248.296C368.516 248.445 368.987 248.595 369.351 248.744C369.715 248.884 370.033 249.117 370.303 249.444C370.583 249.761 370.728 250.191 370.737 250.732C370.737 251.189 370.607 251.6 370.345 251.964C370.093 252.319 369.725 252.599 369.239 252.804C368.763 253.009 368.208 253.112 367.573 253.112Z" fill="url(#paint0_linear)"/>
<path fill-rule="evenodd" clip-rule="evenodd" d="M321.974 166.417C323.046 166.967 323.571 167.875 323.575 169.185C323.578 170.308 323.403 170.842 322.529 172.37C321.675 173.863 321.646 173.759 323.138 174.578C324.12 175.117 324.015 175.175 324.888 173.616C326.23 171.221 328.195 170.188 329.92 170.971C332.702 172.233 331.879 175.733 328.568 176.722C327.518 177.036 327.427 177.038 324.979 176.805C324.661 176.775 324.324 177.274 321.964 181.277C320.503 183.756 319.306 185.828 319.304 185.882C319.302 185.936 319.61 186.159 319.988 186.377C320.481 186.661 320.676 186.869 320.676 187.112C320.676 187.537 320.403 187.814 319.996 187.803C319.824 187.798 318.067 186.867 316.092 185.734C312.728 183.804 312.501 183.647 312.501 183.243C312.501 182.524 312.92 182.41 313.799 182.888C314.212 183.114 314.579 183.249 314.614 183.189C314.649 183.129 315.855 181.071 317.295 178.615C318.734 176.159 319.912 174.113 319.912 174.069C319.912 174.024 319.61 173.623 319.24 173.177C317.843 171.491 317.477 169.413 318.289 167.782C318.859 166.636 319.538 166.181 320.673 166.182C321.139 166.182 321.721 166.288 321.974 166.417ZM319.802 167.923C318.94 168.855 319.031 170.465 320.03 171.957C320.337 172.415 320.629 172.79 320.679 172.79C320.73 172.79 321.093 172.178 321.487 171.431C322.08 170.305 322.204 169.931 322.204 169.264C322.204 168.62 322.126 168.366 321.817 168.005C321.211 167.297 320.412 167.265 319.802 167.923ZM327.967 172.246C327.312 172.522 326.784 173.1 326.034 174.365C325.317 175.575 325.342 175.616 326.807 175.634C328.337 175.653 329.696 174.917 330.158 173.822C330.498 173.015 329.774 172.062 328.808 172.045C328.616 172.042 328.238 172.132 327.967 172.246ZM318.24 179.671C315.43 184.469 315.547 183.91 317.173 184.789L318.046 185.261L319.083 183.495C319.653 182.523 320.83 180.526 321.697 179.056C322.564 177.587 323.271 176.336 323.268 176.277C323.266 176.218 322.767 175.892 322.161 175.551C321.183 175.003 321.04 174.96 320.894 175.176C320.804 175.31 319.61 177.332 318.24 179.671ZM315.672 186.644C317.238 187.53 318.423 188.297 318.474 188.457C318.571 188.757 318.159 189.314 317.84 189.314C317.735 189.314 316.439 188.628 314.96 187.79C312.478 186.384 312.272 186.235 312.272 185.843C312.272 185.492 312.606 185.108 312.911 185.108C312.938 185.108 314.18 185.799 315.672 186.644ZM314.351 188.606C315.116 189.038 315.855 189.484 315.993 189.596C316.365 189.9 316.311 190.492 315.895 190.679C315.596 190.813 315.31 190.703 313.924 189.921C312.005 188.838 311.855 188.696 312.093 188.183C312.346 187.637 312.775 187.717 314.351 188.606Z" fill="#1E1E1E"/>
<path d="M325.81 184.151C329.64 184.419 333.449 183.387 336.623 181.222C339.796 179.056 342.15 175.883 343.305 172.213C344.46 168.542 344.348 164.589 342.987 160.989C341.626 157.39 339.096 154.354 335.803 152.371C332.511 150.389 328.649 149.575 324.84 150.061C321.032 150.547 317.497 152.303 314.806 155.048C312.115 157.792 310.423 161.365 310.005 165.191C309.587 169.017 310.467 172.873 312.502 176.137" stroke="url(#paint1_linear)" stroke-width="5" stroke-linecap="round"/>
<defs>
<linearGradient id="paint0_linear" x1="313.5" y1="238" x2="313.5" y2="259" gradientUnits="userSpaceOnUse">
<stop stop-color="#FA8D3B"/>
<stop offset="0.515625" stop-color="#FDC73F"/>
<stop offset="1" stop-color="#FA8D3B"/>
</linearGradient>
<linearGradient id="paint1_linear" x1="316.617" y1="150.406" x2="337.448" y2="183.67" gradientUnits="userSpaceOnUse">
<stop stop-color="#FA8D3B"/>
<stop offset="0.515625" stop-color="#FDC73F"/>
<stop offset="1" stop-color="#FA8D3B"/>
</linearGradient>
</defs>
</svg>
