<svg width="600" height="400" viewBox="0 0 600 400" fill="none" xmlns="http://www.w3.org/2000/svg">
<rect width="600" height="400" fill="white"/>
<path d="M358 188.52V215.955L354.227 219.661V192.814L358 188.52Z" fill="#E79225"/>
<path d="M333.271 188.542L329.362 192.814L329.564 193.085L354.069 192.994L354.294 192.814L358 188.52L333.271 188.542Z" fill="#FFF16D"/>
<path d="M354.294 192.814H329.362V219.684H354.294V192.814Z" fill="url(#paint0_linear)"/>
<path d="M350.498 202.486C350.004 201.243 349.263 200.113 348.297 199.141C347.376 198.192 346.343 197.469 345.175 196.994C344.029 196.52 342.794 196.271 341.446 196.271C340.099 196.271 338.841 196.52 337.695 196.994C336.527 197.469 335.494 198.192 334.573 199.141C333.607 200.113 332.889 201.243 332.395 202.486C331.9 203.729 331.676 205.085 331.676 206.576C331.676 208.023 331.923 209.379 332.417 210.644C332.911 211.91 333.63 213.04 334.596 214.034C335.494 214.96 336.527 215.661 337.673 216.136C338.818 216.61 340.099 216.859 341.469 216.859C342.794 216.859 344.029 216.61 345.175 216.136C346.32 215.661 347.376 214.96 348.297 214.034C349.263 213.04 350.004 211.91 350.498 210.667C350.992 209.424 351.239 208.045 351.239 206.599C351.239 205.085 350.992 203.729 350.498 202.486ZM345.354 211.345C344.389 212.497 343.108 213.085 341.446 213.085C339.784 213.085 338.481 212.497 337.516 211.345C336.55 210.192 336.078 208.588 336.078 206.554C336.078 204.475 336.572 202.87 337.516 201.695C338.481 200.52 339.762 199.955 341.446 199.955C343.108 199.955 344.389 200.542 345.354 201.695C346.298 202.87 346.792 204.475 346.792 206.554C346.792 208.588 346.32 210.192 345.354 211.345Z" fill="white"/>
<path d="M326.914 186.282V186.418L330.104 211.073L328.239 216.271L327.992 216.09L324.713 192.452L324.78 192.136L326.824 186.418L326.914 186.282Z" fill="#009ADA"/>
<path d="M302.364 189.718L326.914 186.282L324.848 192.203L324.556 192.52L301.601 195.91L301.713 191.684L302.364 189.718Z" fill="#91C9ED"/>
<path d="M324.848 192.203L328.239 216.271L304.049 219.684L300.792 196.429L302.207 195.322L324.848 192.203Z" fill="url(#paint1_linear)"/>
<path d="M320.737 196.814C320.625 196.068 320.378 195.503 319.974 195.119C319.637 194.825 319.232 194.667 318.761 194.667C318.648 194.667 318.514 194.667 318.379 194.689C317.75 194.78 317.278 195.073 316.986 195.548C316.762 195.887 316.672 196.316 316.672 196.814C316.672 196.994 316.694 197.198 316.717 197.401L317.593 203.661L310.63 204.701L309.754 198.441C309.642 197.717 309.395 197.153 308.99 196.768C308.653 196.452 308.249 196.294 307.8 196.294C307.688 196.294 307.575 196.294 307.463 196.316C306.812 196.407 306.317 196.701 306.003 197.175C305.778 197.514 305.688 197.943 305.688 198.441C305.688 198.621 305.711 198.825 305.733 199.051L308.114 215.345C308.227 216.09 308.474 216.655 308.923 217.039C309.26 217.333 309.664 217.469 310.158 217.469C310.293 217.469 310.428 217.469 310.563 217.446C311.169 217.356 311.618 217.062 311.91 216.588C312.112 216.249 312.202 215.842 312.202 215.367C312.202 215.186 312.18 214.983 312.157 214.78L311.191 208.339L318.154 207.299L319.12 213.74C319.232 214.486 319.48 215.051 319.906 215.412C320.243 215.706 320.647 215.864 321.119 215.864C321.231 215.864 321.366 215.864 321.501 215.842C322.13 215.751 322.602 215.458 322.894 214.983C323.096 214.644 323.208 214.237 323.208 213.74C323.208 213.559 323.186 213.356 323.163 213.152L320.737 196.814Z" fill="white"/>
<path d="M279.387 180L270.649 200.881L271.84 210.056L271.907 210.034L281.723 187.819L281.678 187.345L279.566 180.294L279.387 180Z" fill="#66BF6B"/>
<path d="M279.387 180L281.655 187.661L281.7 187.819L303.308 197.559L303.375 197.514L301.533 190.192L279.387 180Z" fill="#98D0A0"/>
<path d="M281.655 187.661L303.375 197.514L293.56 219.91L271.84 210.056L281.655 187.661Z" fill="url(#paint2_linear)"/>
<path d="M296.794 199.322C296.322 198.057 295.671 196.972 294.817 196.068C293.964 195.164 292.931 194.441 291.718 193.921C290.505 193.401 289.292 193.153 288.057 193.153H287.989C286.731 193.153 285.496 193.446 284.283 193.989C283.003 194.554 281.902 195.322 280.959 196.339C280.016 197.333 279.252 198.554 278.668 199.955C278.084 201.333 277.77 202.735 277.702 204.113V204.588C277.702 205.808 277.904 207.006 278.331 208.181C278.78 209.424 279.432 210.486 280.285 211.39C281.139 212.294 282.194 213.017 283.452 213.537C284.643 214.057 285.855 214.305 287.091 214.305H287.113C288.349 214.305 289.584 214.034 290.797 213.514C292.077 212.949 293.2 212.158 294.144 211.141C295.087 210.147 295.873 208.949 296.457 207.548C297.041 206.147 297.355 204.768 297.423 203.39V202.983C297.445 201.74 297.243 200.52 296.794 199.322ZM292.459 205.831C291.65 207.774 290.55 209.107 289.225 209.831C288.506 210.215 287.765 210.418 287.023 210.418C286.372 210.418 285.676 210.26 284.979 209.966C283.452 209.311 282.509 208.271 282.104 206.78C281.97 206.283 281.902 205.763 281.902 205.22C281.902 204.136 282.172 202.938 282.711 201.65C283.542 199.661 284.643 198.305 285.968 197.559C286.687 197.153 287.428 196.972 288.169 196.972C288.843 196.972 289.517 197.13 290.235 197.424C291.74 198.079 292.684 199.119 293.088 200.61C293.223 201.085 293.29 201.605 293.29 202.147C293.29 203.277 293.021 204.497 292.459 205.831Z" fill="white"/>
<path d="M268.92 183.548L272.469 207.458L270.852 215.864L270.627 215.571L267.168 192.475V192.023L268.695 183.955L268.92 183.548Z" fill="#760D16"/>
<path d="M243 195.91L244.685 187.458L268.92 183.548L267.28 192.158V192.723L243.292 196.136L243 195.91Z" fill="#EF463E"/>
<path d="M267.28 192.158L270.852 215.864L246.863 219.638L243 195.909L267.28 192.158Z" fill="url(#paint3_linear)"/>
<path d="M264.697 212.09C264.518 211.864 264.248 211.706 263.934 211.593C263.619 211.48 263.237 211.435 262.766 211.435C262.339 211.435 261.845 211.48 261.306 211.571L254.972 212.655C255.039 212.158 255.286 211.525 255.713 210.734C256.185 209.853 256.903 208.791 257.824 207.571C258.139 207.141 258.386 206.825 258.565 206.599C258.678 206.441 258.857 206.237 259.082 205.943C260.542 204.022 261.418 202.463 261.777 201.243C261.979 200.542 262.092 199.842 262.137 199.141C262.159 198.938 262.159 198.757 262.159 198.576C262.159 198.079 262.114 197.582 262.024 197.085C261.957 196.633 261.845 196.271 261.688 195.977C261.53 195.684 261.351 195.458 261.126 195.322C260.879 195.164 260.497 195.096 260.025 195.096C259.644 195.096 259.172 195.141 258.61 195.232L251.288 196.497C250.412 196.655 249.738 196.904 249.334 197.311C248.997 197.627 248.84 198.034 248.84 198.486C248.84 198.599 248.84 198.734 248.862 198.87C248.975 199.503 249.289 199.955 249.806 200.181C250.12 200.316 250.479 200.384 250.929 200.384C251.221 200.384 251.558 200.361 251.917 200.294L258.026 199.209C258.026 199.322 258.049 199.435 258.049 199.525C258.049 199.91 257.981 200.294 257.847 200.655C257.667 201.175 257.218 201.898 256.477 202.825C256.274 203.073 255.96 203.48 255.533 204C253.871 206.011 252.703 207.729 251.984 209.152C251.468 210.147 251.131 211.096 250.929 212.068C250.816 212.633 250.749 213.152 250.749 213.672C250.749 214.034 250.771 214.395 250.839 214.734C250.929 215.232 251.041 215.638 251.198 215.955C251.355 216.271 251.58 216.52 251.827 216.655C252.074 216.791 252.411 216.836 252.905 216.836C253.512 216.836 254.343 216.746 255.398 216.565L262.047 215.412C263.215 215.209 264.046 214.915 264.518 214.531C264.899 214.215 265.102 213.785 265.102 213.288C265.102 213.152 265.079 213.017 265.057 212.881C265.012 212.587 264.899 212.316 264.697 212.09Z" fill="white"/>
<defs>
<linearGradient id="paint0_linear" x1="341.827" y1="193.198" x2="341.827" y2="218.873" gradientUnits="userSpaceOnUse">
<stop offset="0.005618" stop-color="#FFE513"/>
<stop offset="1" stop-color="#FDB924"/>
</linearGradient>
<linearGradient id="paint1_linear" x1="302.031" y1="195.912" x2="327.075" y2="216.099" gradientUnits="userSpaceOnUse">
<stop offset="0.005618" stop-color="#008CD2"/>
<stop offset="1" stop-color="#00649D"/>
</linearGradient>
<linearGradient id="paint2_linear" x1="287.608" y1="196.619" x2="287.608" y2="219.113" gradientUnits="userSpaceOnUse">
<stop stop-color="#26A146"/>
<stop offset="1" stop-color="#008A52"/>
</linearGradient>
<linearGradient id="paint3_linear" x1="255.181" y1="194.414" x2="258.928" y2="217.785" gradientUnits="userSpaceOnUse">
<stop stop-color="#D92231"/>
<stop offset="1" stop-color="#BA2234"/>
</linearGradient>
</defs>
</svg>
